<svg width="27" height="31" viewBox="0 0 27 31" fill="none" xmlns="http://www.w3.org/2000/svg">
<path fill-rule="evenodd" clip-rule="evenodd" d="M5.40966 0H21.5903C22.2605 0 22.835 0.581368 22.835 1.25963V3.5851C28.7711 4.55405 28.1966 14.9218 22.1648 15.0187C20.8244 17.9255 18.2393 19.6696 15.4627 20.251V25.3864H17.5691C17.9521 25.3864 18.2393 25.774 18.3351 26.1616L19.2925 29.9405C19.3882 30.328 18.9095 30.7156 18.5265 30.7156H8.5692C8.09049 30.7156 7.61177 30.328 7.70751 29.9405L8.66495 26.1616C8.85643 25.774 9.04792 25.3864 9.52664 25.3864H11.5373V20.251C8.76069 19.6696 6.17561 17.9255 4.8352 15.0187C-1.19665 14.9218 -1.77111 4.55405 4.165 3.5851V1.25963C4.165 0.581368 4.73946 0 5.40966 0ZM13.9308 4.94163L14.8883 7.75158H17.9521C19.0053 7.75158 19.0053 8.04226 18.1436 8.62363L15.75 10.3677L16.7074 13.3715C16.9946 14.3404 16.7074 14.4373 15.9415 13.8559L13.5479 12.1118L11.0585 13.8559C10.1968 14.5342 10.1011 14.3404 10.3883 13.3715L11.3458 10.4646L8.85643 8.62363C7.99474 8.04226 8.18623 7.75158 9.14367 7.84847H12.1117L13.0692 4.84474C13.3564 3.87579 13.6436 3.97268 13.9308 4.94163ZM22.835 13.0808V5.4261C25.9945 6.39505 25.9945 12.1118 22.835 13.0808ZM4.165 13.0808V5.4261C1.00546 6.39505 1.00546 12.1118 4.165 13.0808Z" fill="#399F6E"/>
</svg>
