<svg width="32" height="30" viewBox="0 0 32 30" fill="none" xmlns="http://www.w3.org/2000/svg">
<path d="M9.69569 14.9142C9.69569 17.0286 7.98142 18.7429 5.8668 18.7429C3.75236 18.7429 2.03809 17.0286 2.03809 14.9142C2.03809 12.7995 3.75236 11.0854 5.8668 11.0854C7.98148 11.0854 9.69569 12.7995 9.69569 14.9142Z" fill="#399F6E"/>
<path d="M7.30654 19.7573H4.4596C2.39793 19.7573 0.663551 21.2954 0.4346 23.3571L0.00911702 26.6622C-0.0563954 27.0876 0.238296 27.4803 0.66354 27.5784C2.29974 27.9384 4.06673 28.1021 5.86661 28.1021C6.6192 28.1021 7.33913 28.0694 8.02645 28.0039L8.38643 25.0589C8.58274 23.5208 9.33531 22.2119 10.4481 21.2957C9.72818 20.3466 8.55011 19.7575 7.30648 19.7575L7.30654 19.7573Z" fill="#399F6E"/>
<path d="M29.0683 14.9142C29.0683 17.0286 27.354 18.7429 25.2395 18.7429C23.1249 18.7429 21.4106 17.0286 21.4106 14.9142C21.4106 12.7995 23.1249 11.0854 25.2395 11.0854C27.354 11.0854 29.0683 12.7995 29.0683 14.9142Z" fill="#399F6E"/>
<path d="M30.7039 23.3571C30.4747 21.2954 28.7077 19.7573 26.6789 19.7573H23.8319C22.5557 19.7573 21.4103 20.3462 20.6577 21.2954C21.7703 22.2116 22.5557 23.5205 22.7194 25.0585L23.0794 28.0036C23.7667 28.0691 24.5193 28.1017 25.2392 28.1017C27.0717 28.1017 28.8061 27.9054 30.4423 27.5781C30.8678 27.4799 31.1296 27.0873 31.0967 26.6618L30.7039 23.3571Z" fill="#399F6E"/>
<path d="M16.9597 21.6882H14.1128C12.0511 21.6882 10.3167 23.2263 10.0878 25.2551L9.69515 28.5602C9.62964 28.9857 9.92433 29.4109 10.3496 29.4764C11.9858 29.8364 13.7528 30.0001 15.5526 30.0001C17.3851 30.0001 19.1195 29.8038 20.7557 29.4764C21.1812 29.3783 21.443 28.9857 21.4101 28.5602L21.0175 25.2551C20.7557 23.2263 19.0213 21.6882 16.9597 21.6882H16.9597Z" fill="#399F6E"/>
<path d="M19.3816 16.8451C19.3816 18.9597 17.6675 20.6738 15.5528 20.6738C13.4382 20.6738 11.7241 18.9597 11.7241 16.8451C11.7241 14.7306 13.4382 13.0164 15.5528 13.0164C17.6675 13.0164 19.3816 14.7306 19.3816 16.8451Z" fill="#399F6E"/>
<path d="M11.9863 6.79871C12.2155 6.99502 12.3136 7.32234 12.2481 7.61681L11.6263 10.1693C11.4626 10.8892 12.2481 11.4455 12.8699 11.0529L15.1279 9.67848C15.3897 9.51481 15.7168 9.51481 15.9787 9.67848L18.2367 11.0529C18.8585 11.4455 19.6437 10.8566 19.4803 10.1693L18.8584 7.61681C18.7929 7.32234 18.8911 6.99499 19.1203 6.79871L21.1164 5.097C21.6727 4.60623 21.3782 3.68998 20.6583 3.65708L18.0403 3.4279C17.7459 3.39526 17.4514 3.19872 17.353 2.93713L16.3386 0.515492C16.0441 -0.171831 15.095 -0.171831 14.8006 0.515492L13.7862 2.90452C13.6554 3.19899 13.3936 3.39529 13.0989 3.39529L10.4809 3.62447C9.76095 3.68998 9.46649 4.60625 10.0228 5.06439L11.9863 6.79871Z" fill="#399F6E"/>
</svg>
