<svg width="19" height="22" viewBox="0 0 19 22" fill="none" xmlns="http://www.w3.org/2000/svg">
<path fill-rule="evenodd" clip-rule="evenodd" d="M5.53244 0.824707C5.07502 0.824707 4.70706 1.19304 4.70706 1.64891V4.45997C4.70706 4.91739 5.07481 5.28575 5.53244 5.28575C5.98833 5.28575 6.35664 4.91742 6.35664 4.45997V3.50154C6.73596 3.76902 6.9612 4.20212 6.9612 4.66633C6.9612 5.45523 6.32134 6.09509 5.53244 6.09509C4.74196 6.09509 4.1023 5.45523 4.1023 4.66633V2.30496H3.09104C2.52795 2.30496 1.99221 2.44728 1.57258 2.78012C1.15353 3.11432 0.8878 3.63286 0.830533 4.22473L0.00633428 17.2352C-0.0320414 17.8336 0.102177 18.4096 0.457587 18.846C0.812612 19.2832 1.37415 19.5565 1.99629 19.5565H12.1306C12.1242 19.4876 12.1207 19.4188 12.1207 19.3517V18.3196H2.13752C1.83379 18.3196 1.64827 18.2139 1.50867 18.0428C1.36944 17.8733 1.29577 17.6155 1.31332 17.2881L1.83825 7.13799H17.2579L17.6499 14.7135L18.9858 15.5954L18.2641 4.22493C18.208 3.63311 17.9425 3.11455 17.5232 2.78033C17.1026 2.44729 16.5669 2.30516 16.0036 2.30516H14.3876V1.64911C14.3876 1.19322 14.0199 0.824909 13.564 0.824909C13.106 0.824909 12.7382 1.19324 12.7382 1.64911V4.46017C12.7382 4.9176 13.1059 5.28595 13.564 5.28595C14.0198 5.28595 14.3876 4.91762 14.3876 4.46017V3.50174C14.7669 3.76922 14.9924 4.20232 14.9924 4.66653C14.9924 5.45543 14.3521 6.09529 13.5636 6.09529C12.7747 6.09529 12.1347 5.45543 12.1347 4.66653V2.30516H6.35712V1.64911C6.35712 1.19284 5.98879 0.824909 5.53292 0.824909L5.53244 0.824707Z" fill="#0D2F3F"/>
<path fill-rule="evenodd" clip-rule="evenodd" d="M3.99909 9.24194H6.05018C6.35083 9.24194 6.59224 9.48377 6.59224 9.784V11.384C6.59224 11.6847 6.35042 11.9261 6.05018 11.9261H3.99909C3.69845 11.9261 3.45703 11.6843 3.45703 11.384V9.784C3.45684 9.48356 3.69828 9.24194 3.99909 9.24194Z" fill="#0D2F3F"/>
<path fill-rule="evenodd" clip-rule="evenodd" d="M8.52253 9.24194H10.5736C10.8743 9.24194 11.1157 9.48377 11.1157 9.784V11.384C11.1157 11.6847 10.8739 11.9261 10.5736 11.9261H8.52253C8.22189 11.9261 7.98047 11.6843 7.98047 11.384V9.784C7.98047 9.48356 8.22191 9.24194 8.52253 9.24194Z" fill="#0D2F3F"/>
<path fill-rule="evenodd" clip-rule="evenodd" d="M13.046 9.24194H15.0971C15.3977 9.24194 15.6391 9.48377 15.6391 9.784V11.384C15.6391 11.6847 15.3973 11.9261 15.0971 11.9261H13.046C12.7453 11.9261 12.5039 11.6843 12.5039 11.384V9.784C12.5035 9.48356 12.7452 9.24194 13.046 9.24194Z" fill="#0D2F3F"/>
<path fill-rule="evenodd" clip-rule="evenodd" d="M3.99909 13.5315H6.05018C6.35083 13.5315 6.59224 13.7745 6.59224 14.0755V15.6738C6.59224 15.9748 6.35042 16.2179 6.05018 16.2179H3.99909C3.69845 16.2179 3.45703 15.9749 3.45703 15.6738V14.0755C3.45684 13.7745 3.69828 13.5315 3.99909 13.5315Z" fill="#0D2F3F"/>
<path fill-rule="evenodd" clip-rule="evenodd" d="M8.52253 13.5315H10.5736C10.8743 13.5315 11.1157 13.7745 11.1157 14.0755V15.6738C11.1157 15.9748 10.8739 16.2179 10.5736 16.2179H8.52253C8.22189 16.2179 7.98047 15.9749 7.98047 15.6738V14.0755C7.98047 13.7745 8.22191 13.5315 8.52253 13.5315Z" fill="#0D2F3F"/>
<path d="M13.0886 14.4954L13.084 19.3497C13.084 20.0808 13.6245 20.4441 14.0646 20.1211L15.2888 19.2155L16.2617 21.0662C16.4549 21.4345 16.8647 21.5942 17.1817 21.4212L17.9003 21.0307C18.2152 20.8577 18.3143 20.4246 18.1211 20.0563L17.1501 18.2036L18.7484 17.6471C19.1405 17.5108 19.0924 16.8518 18.4877 16.415L14.475 13.7671C13.8326 13.3455 13.0902 13.6394 13.0887 14.4954L13.0886 14.4954Z" fill="#0D2F3F"/>
</svg>
