<svg width="74" height="69" viewBox="0 0 74 69" fill="none" xmlns="http://www.w3.org/2000/svg">
<path d="M49.1719 38.8419H45.7633L43.5874 31.9441C42.4998 28.422 39.2357 26.0005 35.5372 26.0005H16.2457C12.5471 26.0005 9.35604 28.3489 8.19552 31.9441L6.01966 38.8419H2.68327C1.23292 38.8419 0 40.0161 0 41.5568V43.098C0 44.5655 1.16051 45.8129 2.68327 45.8129H3.62625C3.11833 48.3077 2.82845 50.8024 2.82845 53.371V66.2856C2.82845 67.753 3.98896 69.0005 5.51173 69.0005H9.93572C11.3861 69.0005 12.619 67.8263 12.619 66.2856V62.1027H39.3805V66.2856C39.3805 67.753 40.541 69.0005 42.0638 69.0005H46.4878C47.9381 69.0005 49.171 67.8263 49.171 66.2856L49.1715 53.2979C49.1715 50.7293 48.8817 48.2345 48.3737 45.7398H49.3167C50.7671 45.7398 52 44.5656 52 43.0249V41.4837C51.8548 40.0893 50.6223 38.8419 49.1719 38.8419ZM10.734 41.6299L13.2726 33.6317C13.7077 32.3111 14.8682 31.4302 16.2462 31.4302H35.5377C36.9158 31.4302 38.0764 32.3106 38.5114 33.6317L41.05 41.6299C41.1952 41.9969 40.9048 42.3639 40.5421 42.3639H11.2422C10.8795 42.3639 10.5893 41.9969 10.734 41.6299ZM16.3185 54.7648H10.9516C10.0814 54.7648 9.28364 54.0308 9.28364 53.0772V50.5086C9.28364 49.4814 10.1538 48.7474 11.1692 48.8943L16.1735 49.7015C16.8261 49.7747 17.334 50.2886 17.4786 51.0221L17.8414 52.7833C18.1318 53.8106 17.4062 54.7648 16.3185 54.7648ZM42.4998 53.1504C42.4998 54.0308 41.7744 54.838 40.8319 54.838H35.465C34.4496 54.838 33.6518 53.8839 33.8694 52.8567L34.2321 51.0954C34.3773 50.4351 34.8848 49.9212 35.5373 49.7749L40.5416 48.9677C41.557 48.8208 42.4271 49.5548 42.4271 50.582L42.4277 53.1505L42.4998 53.1504Z" fill="#399F6E"/>
<path d="M67.8887 11.6218C67.8076 11.6218 67.8076 11.6218 67.8887 11.6218L66.3552 11.8639C66.1937 11.8639 66.0327 12.0255 66.0327 12.1865L65.8711 12.6711C65.8711 12.8327 65.8711 12.9132 65.9516 12.9937C66.0321 13.0742 66.1132 13.1553 66.2742 13.1553H67.8076C68.0497 13.1553 68.2113 12.9937 68.2113 12.7516V12.0255C68.2113 11.945 68.1308 11.7834 68.0497 11.7029C68.0497 11.7023 67.9692 11.6218 67.8887 11.6218H67.8887Z" fill="#FFC62D"/>
<path d="M59.2546 9.60441H67.8089H67.8894V9.52391L67.1632 7.18384C67.0827 6.86128 66.7596 6.61865 66.356 6.61865H60.707C60.3033 6.61865 59.9808 6.86072 59.8997 7.18384L59.1735 9.52391C59.0936 9.52391 59.0936 9.52391 59.2546 9.60441C59.1741 9.60441 59.1741 9.60441 59.2546 9.60441H59.2546Z" fill="#FFC62D"/>
<path d="M60.624 11.8636L59.1716 11.6216H59.0911C59.0106 11.6216 58.9296 11.6216 58.8491 11.7021C58.7686 11.7826 58.6875 11.8636 58.6875 12.0246V12.7508C58.6875 12.9929 58.8491 13.1545 59.0911 13.1545H60.6246C60.7862 13.1545 60.8667 13.074 60.9472 12.9929C61.0277 12.9124 61.0277 12.7508 61.0277 12.6703L60.9472 12.1862C60.9472 12.0252 60.7856 11.9447 60.624 11.8636L60.624 11.8636Z" fill="#FFC62D"/>
<path d="M71.7303 0.000488281H53.2495C52.2002 0.000488281 51.3125 0.88824 51.3125 1.93748V20.4183C51.3125 21.4676 52.2003 22.3553 53.2495 22.3553H60.1899V67.9519C60.1899 68.5171 60.5935 68.9202 61.1581 68.9202H63.9019C64.467 68.9202 64.8701 68.5166 64.8701 67.9519L64.8707 22.3553H71.6495C72.6988 22.3553 73.5865 21.4675 73.5865 20.4183V1.93748C73.667 0.888182 72.7792 0.000488281 71.7299 0.000488281H71.7303ZM70.1164 9.92728C70.1164 10.4114 69.7128 10.7345 69.3091 10.7345H69.1476C69.3091 11.4607 69.3896 12.1869 69.3896 12.8326V16.5452C69.3896 17.0294 68.986 17.3525 68.5824 17.3525H67.291C66.8069 17.3525 66.4838 16.9489 66.4838 16.5452V15.4154H58.8172V16.5452C58.8172 17.0294 58.4136 17.3525 58.01 17.3525H56.7186C56.2345 17.3525 55.9113 16.9489 55.9113 16.5452V12.8326C55.9113 12.1065 55.9918 11.4608 56.1534 10.7345H55.9918C55.5077 10.7345 55.1846 10.3309 55.1846 9.92728L55.1868 9.44259C55.1868 8.95846 55.5905 8.63534 55.9941 8.63534H56.9623L57.608 6.69834C57.9306 5.64904 58.8994 4.9229 60.0292 4.9229H65.6782C66.808 4.9229 67.7763 5.64909 68.0994 6.69834L68.7451 8.63534H69.7134C70.1975 8.63534 70.5206 9.03896 70.5206 9.44259L70.5201 9.92728H70.1164Z" fill="#FFC62D"/>
</svg>
