<svg width="60" height="60" viewBox="0 0 60 60" fill="none" xmlns="http://www.w3.org/2000/svg">
<path d="M45.7821 31.7653H36.8327L35.6562 30.0005L36.8327 28.2358H45.7821L46.9586 29.9417L45.7821 31.7653Z" fill="#399F6E"/>
<path d="M14.2155 31.7653H23.1649L24.3414 30.079L23.1649 28.2358H14.2155L13.0391 30.1967L14.2155 31.7653Z" fill="#399F6E"/>
<path d="M24.7031 7.67578V5.29461C24.7031 2.37566 27.0784 0.000488281 29.9972 0.000488281L31.1737 3.83814L29.9972 7.05931L27.4644 8.53072L24.7031 7.67578Z" fill="#399F6E"/>
<path d="M30 7.05931V0.000488281C32.9368 0.000488281 35.2941 2.38002 35.2941 5.29461V7.67578L32.4388 8.51978L30 7.05931Z" fill="#399F6E"/>
<path d="M29.9972 52.9418L31.1737 56.163L29.9972 60.0007C27.0784 60.0007 24.7031 57.6254 24.7031 54.7065V52.3254L27.7603 51.5049L29.9972 52.9418Z" fill="#399F6E"/>
<path d="M30 52.9417V60.0005C32.9264 60.0005 35.2941 57.6327 35.2941 54.7064V52.3253L32.2324 51.5054L30 52.9417Z" fill="#399F6E"/>
<path d="M42.0391 10.477L43.7285 8.78763C45.7972 6.71893 49.1461 6.71822 51.2155 8.78763C51.7155 9.28763 52.1039 9.86881 52.3661 10.5042C53.1491 12.3961 52.7959 14.6943 51.2155 16.2748L49.5262 17.9641L45.8848 15.4993L42.0391 10.477Z" fill="#399F6E"/>
<path d="M17.9627 49.5242L16.2733 51.2136C14.202 53.285 10.8501 53.28 8.78626 51.2136C6.71732 49.1446 6.71685 45.7958 8.78626 43.7264L10.4757 42.0371L14.1171 44.5019L17.9627 49.5242Z" fill="#399F6E"/>
<path d="M52.3249 35.2948H54.7061C57.6324 35.2948 60.0002 32.9269 60.0002 30.0007C60.0002 27.0817 57.6249 24.7065 54.7061 24.7065H52.3249L51.1484 30.3536L52.3249 35.2948Z" fill="#399F6E"/>
<path d="M7.67529 35.2948H5.29412C2.36776 35.2948 0 32.9269 0 30.0007C0 27.0817 2.37529 24.7065 5.29412 24.7065H7.67529L8.85176 30.0007L7.67529 35.2948Z" fill="#399F6E"/>
<path d="M49.5262 42.0371L51.2155 43.7264C53.2845 45.7953 53.2849 49.1442 51.2155 51.2136C49.1535 53.2782 45.8018 53.2869 43.7285 51.2136L42.0391 49.5242L46.1649 44.2218L49.5262 42.0371Z" fill="#399F6E"/>
<path d="M10.4757 17.9637L8.78626 16.2744C6.71732 14.2054 6.71685 10.8566 8.78626 8.78721C10.8498 6.72262 14.2086 6.72262 16.2733 8.78721L17.9627 10.4766L14.3216 15.2944L10.4757 17.9637Z" fill="#399F6E"/>
<path d="M29.9991 14.1184L31.1755 18.6106L29.9991 22.9419L29.215 24.2178L28.2344 23.1654V14.216L29.1167 12.9907L29.9991 14.1184Z" fill="#399F6E"/>
<path d="M30 14.1184V22.9419L30.8824 24.2301L31.7647 23.1654V14.216L30.8824 12.9907L30 14.1184Z" fill="#399F6E"/>
<path d="M29.9991 45.8828L31.1755 41.923L29.9991 37.0593L29.1238 35.772L28.2344 36.8357V45.7851L29.1167 47.0104L29.9991 45.8828Z" fill="#399F6E"/>
<path d="M30 45.8828V37.0592L30.8824 35.771L31.7647 36.8357V45.7851L30.6451 47.0235L30 45.8828Z" fill="#399F6E"/>
<path d="M14.1174 30.0003C14.1174 21.2427 21.2421 14.1179 29.9998 14.1179L31.1762 10.1179L29.9998 7.05908C17.35 7.05908 7.05859 17.3505 7.05859 30.0003C7.05859 42.65 17.35 52.9414 29.9998 52.9414L31.1762 49.1191L29.9998 45.8826C21.2421 45.8826 14.1174 38.7578 14.1174 30.0003Z" fill="#FEE05B"/>
<path d="M30 7.05908V14.1179C38.7575 14.1179 45.8824 21.2427 45.8824 30.0003C45.8824 38.7578 38.7575 45.8826 30 45.8826V52.9414C42.6498 52.9414 52.9412 42.65 52.9412 30.0003C52.9412 17.3505 42.6498 7.05908 30 7.05908Z" fill="#FEC258"/>
<path d="M22.9414 30.0007C22.9414 33.893 26.108 37.0595 30.0002 37.0595L31.1767 30.0017L30.0002 22.9419C26.108 22.9419 22.9414 26.1085 22.9414 30.0007Z" fill="#FEE05B"/>
<path d="M30 22.9419V37.0595C33.8922 37.0595 37.0588 33.893 37.0588 30.0007C37.0588 26.1085 33.8922 22.9419 30 22.9419Z" fill="#FEC258"/>
</svg>
