<svg width="16" height="16" viewBox="0 0 16 16" fill="none" xmlns="http://www.w3.org/2000/svg">
<path d="M1.33203 3.99935C1.33203 3.64573 1.47251 3.30659 1.72256 3.05654C1.9726 2.80649 2.31174 2.66602 2.66536 2.66602H13.332C13.6857 2.66602 14.0248 2.80649 14.2748 3.05654C14.5249 3.30659 14.6654 3.64573 14.6654 3.99935V11.9993C14.6654 12.353 14.5249 12.6921 14.2748 12.9422C14.0248 13.1922 13.6857 13.3327 13.332 13.3327H2.66536C2.31174 13.3327 1.9726 13.1922 1.72256 12.9422C1.47251 12.6921 1.33203 12.353 1.33203 11.9993V3.99935Z" stroke="white" stroke-width="1.5" stroke-linecap="round" stroke-linejoin="round"/>
<path d="M1.33203 5.33398L6.3327 9.33465C6.80556 9.71299 7.39311 9.91912 7.9987 9.91912C8.60429 9.91912 9.19184 9.71299 9.6647 9.33465L14.6654 5.33398" stroke="white" stroke-width="1.5" stroke-linejoin="round"/>
</svg>
