<svg width="20" height="20" viewBox="0 0 20 20" fill="none" xmlns="http://www.w3.org/2000/svg">
<path d="M13.0622 0.476156C11.2229 -0.11214 9.25245 -0.156222 7.38861 0.349031C5.52478 0.854281 3.84689 1.88742 2.5576 3.32379C1.26817 4.76015 0.422219 6.53847 0.121906 8.44449C-0.178566 10.3502 0.0792038 12.3023 0.864281 14.0648C1.64937 15.8275 2.92816 17.3258 4.54619 18.379C6.16448 19.4321 8.05312 19.995 9.98444 20C10.2753 20 10.5692 19.9872 10.8647 19.9619C13.5078 19.7279 15.9503 18.4561 17.6558 16.4255C19.3615 14.3948 20.1911 11.771 19.9628 9.13006C19.9373 8.83953 19.7585 8.58458 19.4938 8.46126C19.2291 8.3381 18.9185 8.36531 18.6795 8.53269C18.4403 8.70021 18.3087 8.98239 18.3342 9.27289C18.4892 11.0612 18.0639 12.8517 17.1212 14.3798C16.1785 15.9079 14.7685 17.0921 13.0998 17.7575C11.431 18.4229 9.59225 18.534 7.85545 18.0743C6.11873 17.6146 4.57605 16.6087 3.4559 15.2054C2.33571 13.8019 1.6976 12.0756 1.63575 10.2817C1.57404 8.4879 2.09198 6.72188 3.11288 5.24478C4.13374 3.76774 5.60349 2.65834 7.30469 2.08053C9.00589 1.50271 10.8479 1.48726 12.5584 2.03659C12.8375 2.12645 13.1432 2.06083 13.3607 1.8644C13.578 1.66783 13.6741 1.37051 13.6125 1.08421C13.5509 0.797791 13.3411 0.566083 13.0621 0.476215L13.0622 0.476156Z" fill="white"/>
<path d="M3.85677 9.5235C3.75689 9.66225 3.70312 9.82877 3.70312 9.99969C3.70312 10.1706 3.75689 10.3371 3.85677 10.4759C3.96629 10.6346 6.58642 14.2346 9.98505 14.2346C13.3837 14.2346 16.004 10.6345 16.1133 10.4759C16.2132 10.3371 16.267 10.1706 16.267 9.99969C16.267 9.82877 16.2132 9.66225 16.1133 9.5235C16.0038 9.36477 13.3837 5.7666 9.98505 5.7666C6.58642 5.7666 3.96608 9.36495 3.85677 9.5235ZM14.4024 9.99969C14.0595 10.3968 13.6877 10.7683 13.2902 11.1108C12.4957 11.7885 11.285 12.598 9.9868 12.598C8.68872 12.598 7.4732 11.7933 6.68187 11.1108C6.28437 10.7683 5.91251 10.3968 5.56963 9.99969C5.91252 9.6026 6.28437 9.23111 6.68187 8.88858C7.47632 8.21085 8.68702 7.40135 9.98524 7.40135C11.2833 7.40135 12.4973 8.20763 13.2886 8.88858C13.6861 9.23113 14.058 9.6026 14.4008 9.99969H14.4024Z" fill="white"/>
<path d="M9.57561 9.00138V9.59179L8.98446 9.59193C8.75903 9.59193 8.57617 9.77446 8.57617 9.9998C8.57617 10.2251 8.75904 10.4077 8.98446 10.4077H9.57546V10.9981L9.5756 10.9982C9.5756 11.2234 9.75832 11.4061 9.98389 11.4061C10.2095 11.4061 10.3922 11.2234 10.3922 10.9982V10.4077H10.9833C11.2087 10.4077 11.3916 10.2251 11.3916 9.99979C11.3916 9.77446 11.2087 9.59192 10.9833 9.59192H10.3922V9.00138C10.3922 8.77618 10.2095 8.59351 9.98389 8.59351C9.75832 8.59351 9.5756 8.77619 9.5756 9.00138L9.57561 9.00138Z" fill="white"/>
</svg>
