<svg width="32" height="32" viewBox="0 0 32 32" fill="none" xmlns="http://www.w3.org/2000/svg">
<path d="M4 4L28 28" stroke="#0F172A" stroke-width="1.5" stroke-linecap="round" stroke-linejoin="round"/>
<path d="M14.112 14.116C13.6116 14.616 13.3303 15.2943 13.3301 16.0017C13.3298 16.7091 13.6106 17.3876 14.1106 17.888C14.6106 18.3883 15.289 18.6696 15.9963 18.6698C16.7037 18.6701 17.3822 18.3893 17.8826 17.8893" stroke="#0F172A" stroke-width="1.5" stroke-linecap="round" stroke-linejoin="round"/>
<path d="M12.4833 7.15325C13.6266 6.82621 14.8103 6.66237 15.9993 6.66658C21.3327 6.66658 25.7767 9.77725 29.3327 15.9999C28.2953 17.8146 27.1833 19.3652 25.9953 20.6506M23.142 23.1319C20.9673 24.5986 18.5887 25.3332 15.9993 25.3332C10.666 25.3332 6.22202 22.2226 2.66602 15.9999C4.49135 12.8066 6.55002 10.4332 8.84202 8.87858" stroke="#0F172A" stroke-width="1.5" stroke-linecap="round" stroke-linejoin="round"/>
</svg>
