<svg width="30" height="30" viewBox="0 0 30 30" fill="none" xmlns="http://www.w3.org/2000/svg">
<circle cx="15" cy="15" r="14.75" fill="white" stroke="#929292" stroke-width="0.5"/>
<path d="M22 22H21V19.5C20.9992 18.8372 20.7356 18.2018 20.2669 17.7331C19.7982 17.2644 19.1628 17.0008 18.5 17V16C19.4279 16.0011 20.3176 16.3701 20.9737 17.0263C21.6299 17.6824 21.9989 18.5721 22 19.5V22ZM18 22H17V19.5C16.9992 18.8372 16.7356 18.2018 16.2669 17.7331C15.7982 17.2644 15.1628 17.0008 14.5 17H11.5C10.8372 17.0008 10.2018 17.2644 9.73311 17.7331C9.26444 18.2018 9.00079 18.8372 9 19.5V22H8V19.5C8.00106 18.5721 8.37015 17.6824 9.0263 17.0263C9.68244 16.3701 10.5721 16.0011 11.5 16H14.5C15.4279 16.0011 16.3176 16.3701 16.9737 17.0263C17.6299 17.6824 17.9989 18.5721 18 19.5V22ZM17 8V9C17.663 9 18.2989 9.26339 18.7678 9.73223C19.2366 10.2011 19.5 10.837 19.5 11.5C19.5 12.163 19.2366 12.7989 18.7678 13.2678C18.2989 13.7366 17.663 14 17 14V15C17.9283 15 18.8185 14.6313 19.4749 13.9749C20.1313 13.3185 20.5 12.4283 20.5 11.5C20.5 10.5717 20.1313 9.6815 19.4749 9.02513C18.8185 8.36875 17.9283 8 17 8ZM13 9C13.4945 9 13.9778 9.14662 14.3889 9.42133C14.8 9.69603 15.1205 10.0865 15.3097 10.5433C15.4989 11.0001 15.5484 11.5028 15.452 11.9877C15.3555 12.4727 15.1174 12.9181 14.7678 13.2678C14.4181 13.6174 13.9727 13.8555 13.4877 13.952C13.0028 14.0484 12.5001 13.9989 12.0433 13.8097C11.5865 13.6205 11.196 13.3 10.9213 12.8889C10.6466 12.4778 10.5 11.9945 10.5 11.5C10.5 10.837 10.7634 10.2011 11.2322 9.73223C11.7011 9.26339 12.337 9 13 9ZM13 8C12.3078 8 11.6311 8.20527 11.0555 8.58986C10.4799 8.97444 10.0313 9.52107 9.76642 10.1606C9.50151 10.8001 9.4322 11.5039 9.56725 12.1828C9.7023 12.8617 10.0356 13.4854 10.5251 13.9749C11.0146 14.4644 11.6383 14.7977 12.3172 14.9327C12.9961 15.0678 13.6999 14.9985 14.3394 14.7336C14.9789 14.4687 15.5256 14.0201 15.9101 13.4445C16.2947 12.8689 16.5 12.1922 16.5 11.5C16.5 10.5717 16.1313 9.6815 15.4749 9.02513C14.8185 8.36875 13.9283 8 13 8Z" fill="#929292"/>
</svg>
