<svg width="38" height="40" viewBox="0 0 38 40" fill="none" xmlns="http://www.w3.org/2000/svg">
<path d="M33.9189 31.2428L33.9976 31.3128C34.3961 31.6669 34.4344 32.2791 34.0839 32.6808L34.0836 32.6811C33.1211 33.7774 32.0372 34.7586 30.8529 35.606C30.6332 35.7644 30.3574 35.8232 30.0924 35.7679C29.8272 35.7126 29.5973 35.5482 29.4585 35.3146C29.4585 35.3146 29.4585 35.3146 29.4585 35.3146L29.5874 35.2379C29.3725 34.8765 29.4673 34.4096 29.8059 34.1626L33.9189 31.2428ZM33.9189 31.2428L33.9128 31.2461L33.9189 31.2428Z" fill="#0D2F3F" stroke="#0D2F3F" stroke-width="0.3"/>
<path d="M28.6622 36.5757C28.7124 36.4028 28.6891 36.2167 28.5977 36.0618L28.6622 36.5757ZM28.6622 36.5757C28.6117 36.7486 28.4922 36.8926 28.332 36.973L28.6622 36.5757ZM28.56 35.701L28.5414 35.7075L28.5577 35.6972C28.3345 35.3412 27.8771 35.2157 27.5049 35.4105C27.1167 35.6083 26.962 36.0843 27.1568 36.4744L27.1565 36.4745L27.1615 36.483L27.3452 36.7974C27.5574 37.1687 28.0234 37.3057 28.4008 37.1063C28.5977 37.0069 28.7443 36.8298 28.8062 36.6178L28.8063 36.6175C28.868 36.4051 28.8394 36.1763 28.727 35.9858C28.7269 35.9857 28.7269 35.9856 28.7268 35.9856L28.56 35.701Z" fill="#0D2F3F" stroke="#0D2F3F" stroke-width="0.3"/>
<path d="M35.0798 10.5436L35.0372 10.4345L35.084 10.5418C35.3464 10.4273 35.5435 10.2005 35.622 9.9246L35.6221 9.92443C35.7002 9.64878 35.6526 9.35181 35.4907 9.1151L35.4906 9.11498C35.3264 8.87549 35.1537 8.63608 34.9763 8.40495C32.1491 4.66039 28.0525 2.09535 23.469 1.19995C18.8853 0.304511 14.1338 1.14137 10.123 3.55087C6.11208 5.96034 3.12202 9.7732 1.72309 14.2622C0.324165 18.751 0.613945 23.6021 2.53759 27.8895L2.67444 27.8281L2.53759 27.8895C4.46131 32.1767 7.88416 35.6008 12.1531 37.5075C16.422 39.4142 21.2383 39.6702 25.6827 38.2265L25.6827 38.2265L25.686 38.2254C25.9613 38.129 26.178 37.9124 26.2762 37.6372L26.2762 37.6372C26.3744 37.3618 26.3441 37.0565 26.1935 36.8062L26.1933 36.8059C25.9593 36.4187 25.4906 36.2445 25.0624 36.3868C21.0809 37.6731 16.7691 37.4424 12.9443 35.7389C9.1194 34.0358 6.04706 30.9772 4.30949 27.143C2.57214 23.3083 2.29062 18.965 3.51861 14.9356L3.51861 14.9356C4.74629 10.9063 7.39834 7.47116 10.9708 5.28069C14.5431 3.09025 18.7892 2.29667 22.9033 3.04996C27.018 3.8036 30.7153 6.05187 33.2951 9.36939L33.2969 9.37156C33.499 9.62176 33.6891 9.8815 33.8759 10.1508C34.1345 10.5501 34.6349 10.7147 35.0784 10.5441L35.0664 10.5128L35.0793 10.5438L35.0798 10.5436Z" fill="#0D2F3F" stroke="#0D2F3F" stroke-width="0.3"/>
<path d="M31.2387 10.2935L31.0124 10.417L31.2316 10.5527L36.7418 13.9642L36.9636 14.1015L36.9707 13.8408L37.1507 7.3247L37.1579 7.06394L36.9289 7.18888L31.2387 10.2935Z" fill="#0D2F3F" stroke="#0D2F3F" stroke-width="0.3"/>
<path d="M24.5339 25.4605L24.4923 25.5025C24.3187 25.6774 24.0831 25.7757 23.8374 25.7757C23.5916 25.7757 23.3561 25.6775 23.1825 25.5025L23.1826 25.5026L24.5339 25.4605ZM24.5339 25.4605L24.534 25.457M24.5339 25.4605L24.534 25.457M24.534 25.457C24.8531 25.0899 24.8393 24.5316 24.4925 24.1811L24.4921 24.1807L19.9298 19.604V11.207C19.9298 10.6936 19.5164 10.2753 19.0041 10.2753C18.4919 10.2753 18.0785 10.6936 18.0785 11.207L18.0785 19.9991L18.0785 20.0009C18.0814 20.2437 18.178 20.4766 18.3493 20.6489L18.3494 20.6489L23.1825 25.5025L24.534 25.457Z" fill="#0D2F3F" stroke="#0D2F3F" stroke-width="0.3"/>
</svg>
