<svg width="24" height="24" viewBox="0 0 24 24" fill="none" xmlns="http://www.w3.org/2000/svg">
<path d="M12 23.9995C5.38358 23.9995 0 18.6164 0 12C0 5.38358 5.38358 0 12 0C18.6164 0 24 5.3831 24 12C24 18.6174 18.6174 23.9995 12 23.9995ZM12 0.780585C5.81317 0.780585 0.780103 5.81365 0.780103 12.0005C0.780103 18.1873 5.81317 23.2204 12 23.2204C18.1868 23.2204 23.2199 18.1873 23.2199 12.0005C23.2199 5.81365 18.1868 0.780585 12 0.780585Z" fill="white"/>
<path d="M12.0008 7.19233C8.93171 7.19233 6.01119 6.03462 3.77792 3.93186C3.62103 3.78402 3.61388 3.53767 3.76097 3.38077C3.90881 3.22408 4.15516 3.21673 4.31186 3.36382C6.40011 5.32985 9.13081 6.4124 12.0001 6.4124C14.8965 6.4124 17.6455 5.31235 19.7408 3.31426C19.8972 3.16585 20.1435 3.17131 20.2925 3.32744C20.4409 3.4832 20.4354 3.73011 20.2793 3.87906C18.039 6.01571 15.0987 7.19228 12.0004 7.19228L12.0008 7.19233Z" fill="white"/>
<path d="M4.08716 20.7025C3.98244 20.7025 3.87886 20.6607 3.80202 20.5784C3.65493 20.4209 3.66397 20.174 3.82142 20.0275C6.04886 17.9513 8.9538 16.8081 12.0004 16.8081C15.0151 16.8081 17.897 17.9308 20.1158 19.9682C20.2744 20.114 20.2848 20.3605 20.1396 20.5191C19.9942 20.6777 19.7471 20.688 19.5885 20.5426C17.5142 18.6378 14.8198 17.588 12.0015 17.588C9.15274 17.588 6.43665 18.6574 4.3538 20.5978C4.27809 20.6675 4.18242 20.7026 4.08731 20.7026L4.08716 20.7025Z" fill="white"/>
<path d="M12 23.9995C8.36717 23.9995 5.52148 18.7287 5.52148 12C5.52148 5.27076 8.36722 0 12 0C15.6328 0 18.4785 5.27124 18.4785 12C18.4785 18.7283 15.6328 23.9995 12 23.9995ZM12 0.780585C8.85761 0.780585 6.30111 5.81365 6.30111 12.0005C6.30111 18.1873 8.85756 23.2204 12 23.2204C15.1425 23.2204 17.6989 18.1873 17.6989 12.0005C17.6989 5.81365 15.1425 0.780585 12 0.780585Z" fill="white"/>
<path d="M23.6099 12.3902H0.390042C0.174395 12.3902 0 12.2158 0 12.0002C0 11.7847 0.1744 11.6104 0.390042 11.6104H23.6099C23.8256 11.6104 24 11.7848 24 12.0002C24 12.2153 23.8256 12.3902 23.6099 12.3902Z" fill="white"/>
<path d="M12.0002 23.9996C11.7847 23.9996 11.6104 23.8252 11.6104 23.6097V0.39083C11.6104 0.175372 11.7848 0.000976562 12.0002 0.000976562C12.2159 0.000976562 12.3902 0.175376 12.3902 0.39083V23.6097C12.3908 23.8252 12.2158 23.9996 12.0002 23.9996Z" fill="white"/>
</svg>
