<svg width="20" height="19" viewBox="0 0 20 19" fill="none" xmlns="http://www.w3.org/2000/svg">
<path d="M10.9022 0.021457C9.32919 0.149015 7.83202 0.751433 6.6094 1.74933L6.58269 1.77004C6.25116 2.0351 6.08632 2.45713 6.15031 2.87667C6.2143 3.29621 6.49717 3.6499 6.89248 3.80438C7.28779 3.95886 7.73548 3.89052 8.06702 3.62546L8.12935 3.57494C8.90942 2.93693 9.85431 2.53251 10.8545 2.40825C12.427 2.22892 13.9955 2.77643 15.1145 3.89571C16.2337 5.01474 16.7812 6.58316 16.602 8.15571C16.4798 9.15424 16.0797 10.0985 15.4471 10.8808L15.3966 10.9432C15.2141 11.1716 15.1222 11.4594 15.1385 11.7514C15.1549 12.0434 15.2785 12.319 15.4856 12.5255C15.7248 12.7692 16.0573 12.8982 16.3984 12.8796C16.7395 12.8607 17.0559 12.6961 17.2669 12.4275L17.2876 12.4008C18.2855 11.1783 18.8879 9.68104 19.0155 8.10807C19.1737 5.91406 18.3688 3.75965 16.8107 2.20676C15.2526 0.65388 13.0957 -0.144005 10.902 0.0214456L10.9022 0.021457Z" fill="#286F6C"/>
<path d="M3.57301 8.12003L3.62354 8.0577C3.80597 7.82929 3.89792 7.54145 3.88156 7.24948C3.8652 6.9575 3.74157 6.68188 3.53449 6.47539C3.29553 6.23663 2.96647 6.11094 2.62936 6.12978C2.29224 6.14842 1.97912 6.30973 1.76813 6.57334L1.74742 6.60006H1.74722C0.74953 7.82262 0.146888 9.31984 0.0195529 10.8928C-0.138243 13.0841 0.664816 15.2357 2.21934 16.7883C3.77408 18.3407 5.9269 19.1405 8.11799 18.9796C9.69097 18.852 11.1881 18.2496 12.4108 17.2517L12.4375 17.231C12.769 16.966 12.9338 16.5439 12.8698 16.1244C12.8059 15.7048 12.523 15.3512 12.1277 15.1967C11.7324 15.0422 11.2847 15.1105 10.9531 15.3756L10.8908 15.4261C10.1107 16.0641 9.16585 16.4685 8.16567 16.5928C6.59312 16.7721 5.0247 16.2246 3.90567 15.1053C2.78643 13.9863 2.23892 12.4179 2.41821 10.8453C2.54038 9.84681 2.94046 8.90256 3.57307 8.1202L3.57301 8.12003Z" fill="#286F6C"/>
<path d="M10.7463 6.58221L6.59027 10.7382C6.29 11.0385 6.1728 11.4759 6.28275 11.8859C6.39251 12.2959 6.71286 12.6162 7.12289 12.726C7.53291 12.8359 7.97023 12.7187 8.27049 12.4185L12.4265 8.26244C12.7268 7.96217 12.844 7.52483 12.734 7.11483C12.6243 6.70482 12.3039 6.38449 11.8939 6.2747C11.4839 6.16474 11.0466 6.28195 10.7463 6.58221Z" fill="#286F6C"/>
</svg>
