<svg width="19" height="18" viewBox="0 0 19 18" fill="none" xmlns="http://www.w3.org/2000/svg">
<path d="M17.2957 5.86956V5.56956H16.9957H15.1957C15.0238 5.56956 14.8957 5.43491 14.8957 5.28259C14.8957 5.13029 15.0238 4.99562 15.1957 4.99562H16.6956H16.9956H16.9957V4.69562H17.2956V1.1739V0.873897H16.9956H9.39593H9.09593V1.1739V4.69559V4.99559H9.39593H12.3958C12.5677 4.99559 12.6958 5.13024 12.6958 5.28256C12.6958 5.43486 12.5677 5.56952 12.3958 5.56952H9.39593H9.09593V5.86952V7.63039C9.09593 7.7827 8.96786 7.91735 8.79594 7.91735C8.62403 7.91735 8.49595 7.78268 8.49595 7.63039V1.1739V0.873897H8.19595H6.19604H5.89604V1.1739V12.1304V12.4304H6.19604H8.19595H8.49595V12.1304V10.3695C8.49595 10.2172 8.62402 10.0826 8.79594 10.0826C8.96785 10.0826 9.09593 10.2172 9.09593 10.3695V12.1304V12.4304H9.39593H16.9957H17.2957V12.1304V5.86956ZM5.59608 0.3H17.5956C17.7675 0.3 17.8956 0.43466 17.8956 0.586931V12.7173C17.8956 12.8696 17.7675 13.0043 17.5956 13.0043H5.59608C5.42417 13.0043 5.29609 12.8696 5.29609 12.7173V0.586966C5.29609 0.434661 5.42419 0.3 5.59608 0.3Z" stroke="#929292" stroke-width="0.6"/>
<path d="M18.0208 15.8238L16.8209 14.6499C16.5867 14.4207 16.2067 14.4207 15.9724 14.6499C15.7381 14.8792 15.7381 15.2508 15.9724 15.48L16.1482 15.652H4.64563L4.82136 15.48C5.05567 15.2508 5.05567 14.8792 4.8214 14.65C4.58713 14.4208 4.20721 14.4208 3.97291 14.65L2.77308 15.8238C2.53716 16.0544 2.54122 16.4275 2.77308 16.6541L3.97291 17.8279C4.20718 18.0572 4.5871 18.0572 4.8214 17.8279C5.0557 17.5987 5.0557 17.2271 4.8214 16.9979L4.64563 16.8259H16.1481L15.9724 16.9978C15.7381 17.227 15.7381 17.5987 15.9724 17.8279C16.2067 18.0571 16.5866 18.0572 16.8209 17.8279L18.0207 16.6541C18.2547 16.4254 18.2542 16.0519 18.0208 15.8238Z" fill="#929292"/>
<path d="M2.77097 12.3023L2.59521 12.4742V2.004L2.77097 2.17591C3.00524 2.40513 3.38516 2.40517 3.61946 2.17591C3.85376 1.94673 3.8538 1.57506 3.61946 1.34584L2.41948 0.171913C2.18522 -0.0573044 1.8053 -0.0573044 1.571 0.171913L0.371054 1.34581C0.13675 1.57499 0.136714 1.94666 0.371054 2.17588C0.605321 2.4051 0.985237 2.4051 1.21954 2.17588L1.39527 2.00396V12.4742L1.21954 12.3023C0.985273 12.073 0.605357 12.073 0.371054 12.3023C0.13675 12.5314 0.136714 12.9031 0.371054 13.1323L1.571 14.3062C1.80526 14.5354 2.18518 14.5355 2.41948 14.3062L3.61943 13.1323C3.85373 12.9031 3.85376 12.5315 3.61943 12.3023C3.38519 12.0731 3.00528 12.0731 2.77097 12.3023Z" fill="#929292"/>
</svg>
