<svg width="30" height="30" viewBox="0 0 30 30" fill="none" xmlns="http://www.w3.org/2000/svg">
<circle cx="15" cy="15" r="14.75" fill="white" stroke="#929292" stroke-width="0.5"/>
<path d="M20.408 14.2865V10.4243C20.408 9.63894 19.764 9 18.9725 9H11.0275C10.236 9 9.59207 9.63894 9.59207 10.4243V14.2865C8.67999 14.5042 8 15.32 8 16.2908V19.1715C8 19.4001 8.18673 19.5853 8.41708 19.5853H9.59204V20.5862C9.59204 20.8147 9.77877 21 10.0091 21C10.2395 21 10.4262 20.8147 10.4262 20.5862V19.5853H19.5738V20.5862C19.5738 20.8147 19.7605 21 19.9909 21C20.2212 21 20.408 20.8147 20.408 20.5862V19.5853H21.5829C21.8133 19.5853 22 19.4001 22 19.1715V16.2908C22.0001 15.32 21.3201 14.5042 20.408 14.2865ZM10.4262 10.4243C10.4262 10.0953 10.696 9.82766 11.0275 9.82766H18.9725C19.3041 9.82766 19.5738 10.0953 19.5738 10.4243V14.2291H18.1956V13.5762C18.1956 12.4945 17.3086 11.6146 16.2184 11.6146H13.7817C12.6915 11.6146 11.8045 12.4946 11.8045 13.5762V14.2291H10.4262V10.4243ZM17.3614 13.5762V14.2291H12.6386V13.5762C12.6386 12.9509 13.1514 12.4422 13.7816 12.4422H16.2184C16.8486 12.4422 17.3614 12.9509 17.3614 13.5762ZM8.83415 18.7577V16.2908C8.83415 15.6103 9.3921 15.0567 10.0779 15.0567H19.9221C20.6079 15.0567 21.1658 15.6103 21.1658 16.2908V18.7577H8.83415Z" fill="#828282"/>
</svg>
