<svg width="23" height="23" viewBox="0 0 23 23" fill="none" xmlns="http://www.w3.org/2000/svg">
<path d="M21.3633 14.089H21.5455L21.5105 14.2678L20.7286 18.2637C20.7286 18.2637 20.7286 18.2637 20.7286 18.2637C20.3895 19.9975 19.0784 21.2369 17.5142 21.2369H5.48348C3.91944 21.2369 2.60835 19.9975 2.26914 18.2637L1.4874 14.2678L1.45242 14.089H1.63461H21.3633ZM19.9862 18.1184L19.9862 18.1183L20.6267 14.8455H2.37158L3.01189 18.1183C3.28789 19.5285 4.31693 20.4804 5.48369 20.4804H17.5145C18.6816 20.4804 19.7104 19.5287 19.9862 18.1184Z" fill="#929292" stroke="#929292" stroke-width="0.3"/>
<path d="M22 14.089H22.15V14.239V14.6956V14.8456H22H1H0.85V14.6956V14.239V14.089H1H22Z" fill="#929292" stroke="#929292" stroke-width="0.3"/>
<path d="M5.79297 20.7089H5.94297V20.8589V22.2285V22.3785H5.79297H5.33641H5.18641V22.2285V20.8589V20.7089H5.33641H5.79297Z" fill="#929292" stroke="#929292" stroke-width="0.3"/>
<path d="M17.207 20.7089H17.357V20.8589V22.2285V22.3785H17.207H16.7505H16.6005V22.2285V20.8589V20.7089H16.7505H17.207Z" fill="#929292" stroke="#929292" stroke-width="0.3"/>
<path d="M1.68508 14.6174H1.53508V14.4674L1.53509 4.80465C1.53509 2.62393 3.30919 0.85 5.48974 0.85C6.98924 0.85 8.34193 1.68129 9.01857 3.01876L9.01861 3.01883C9.08655 3.1533 9.14838 3.24985 9.21304 3.32739L9.54481 3.72455L9.64093 3.83962L9.5259 3.93579L9.1755 4.22873L9.06035 4.325L8.96416 4.20979L8.63236 3.81243C8.52625 3.6855 8.43453 3.54063 8.34335 3.36017C7.7961 2.27808 6.70314 1.60641 5.48973 1.60641C3.72642 1.60641 2.29163 3.04131 2.29163 4.80467V14.4674V14.6174H2.14163H1.68508Z" fill="#929292" stroke="#929292" stroke-width="0.3"/>
<path d="M8.03201 9.49673L8.1594 9.4173L14.7454 5.31112L14.8727 5.23173L14.7933 5.10443L14.6724 4.91071C14.6724 4.9107 14.6724 4.91069 14.6724 4.91068C13.4964 3.02502 11.0051 2.44786 9.11977 3.623L9.11975 3.62302C7.23394 4.79899 6.65642 7.2897 7.83214 9.17557L8.03201 9.49673ZM8.03201 9.49673L7.95269 9.36927L7.83221 9.17568L8.03201 9.49673ZM9.51974 4.2649C8.09653 5.15225 7.59055 6.96233 8.29218 8.44284L13.8119 5.00152C12.7911 3.71998 10.9435 3.37742 9.51974 4.2649Z" fill="#929292" stroke="#929292" stroke-width="0.3"/>
<path d="M15.0169 7.70945L15.1389 7.79664L15.0518 7.91869L14.7865 8.29012L14.6993 8.41219L14.5772 8.32499L14.0202 7.92708L13.8981 7.83989L13.9853 7.71784L14.2506 7.34641L14.3377 7.22434L14.4598 7.31153L15.0169 7.70945Z" fill="#929292" stroke="#929292" stroke-width="0.3"/>
<path d="M16.4036 8.70056L16.5256 8.78774L16.4385 8.9098L16.1732 9.28123L16.086 9.4033L15.9639 9.31611L15.2703 8.82063L15.1482 8.73345L15.2354 8.61139L15.5007 8.23997L15.5879 8.1179L15.7099 8.20509L16.4036 8.70056Z" fill="#929292" stroke="#929292" stroke-width="0.3"/>
<path d="M17.6555 9.59413L17.7776 9.68132L17.6904 9.80338L17.4251 10.1748L17.338 10.2969L17.2159 10.2097L16.6585 9.8116L16.5365 9.72442L16.6237 9.60236L16.8889 9.23093L16.9761 9.10887L17.0982 9.19605L17.6555 9.59413Z" fill="#929292" stroke="#929292" stroke-width="0.3"/>
<path d="M11.757 8.88531L11.9025 8.92159L11.8663 9.06713L11.7007 9.73166L11.6644 9.87722L11.5188 9.84094L11.0757 9.73049L10.9302 9.69421L10.9664 9.54867L11.132 8.88414L11.1683 8.73858L11.3139 8.77486L11.757 8.88531Z" fill="#929292" stroke="#929292" stroke-width="0.3"/>
<path d="M11.3996 10.3284L11.5451 10.3647L11.5088 10.5102L11.3148 11.289L11.2785 11.4346L11.1329 11.3983L10.6898 11.2878L10.5443 11.2516L10.5805 11.106L10.7746 10.3273L10.8109 10.1817L10.9564 10.218L11.3996 10.3284Z" fill="#929292" stroke="#929292" stroke-width="0.3"/>
<path d="M11.0089 11.8864L11.1544 11.9226L11.1182 12.0682L10.9528 12.7327L10.9166 12.8782L10.771 12.842L10.3279 12.7317L10.1823 12.6955L10.2186 12.5499L10.384 11.8854L10.4202 11.7398L10.5658 11.7761L11.0089 11.8864Z" fill="#929292" stroke="#929292" stroke-width="0.3"/>
<path d="M13.553 8.91238L13.6325 9.03955L13.5053 9.1191L13.1183 9.36119L12.9912 9.44075L12.9116 9.31357L12.5485 8.73302L12.4689 8.60585L12.5961 8.5263L12.9831 8.28421L13.1103 8.20465L13.1898 8.33183L13.553 8.91238Z" fill="#929292" stroke="#929292" stroke-width="0.3"/>
<path d="M14.592 10.5732L14.6716 10.7003L14.5444 10.7799L14.1574 11.022L14.0302 11.1015L13.9507 10.9743L13.4316 10.1444L13.352 10.0172L13.4792 9.93768L13.8662 9.69559L13.9933 9.61603L14.0729 9.74321L14.592 10.5732Z" fill="#929292" stroke="#929292" stroke-width="0.3"/>
<path d="M15.4729 11.9844L15.5524 12.1116L15.4253 12.1911L15.0383 12.4332L14.9111 12.5128L14.8315 12.3856L14.4684 11.805L14.3889 11.6779L14.516 11.5983L14.903 11.3562L15.0302 11.2767L15.1097 11.4039L15.4729 11.9844Z" fill="#929292" stroke="#929292" stroke-width="0.3"/>
</svg>
