<svg width="21" height="20" viewBox="0 0 21 20" fill="none" xmlns="http://www.w3.org/2000/svg">
<path d="M10.0014 0C4.48684 0 0 4.48612 0 10.0004C0 15.5142 4.48684 20 10.0014 20C15.5161 20 20.0022 15.5146 20.0022 10.0004C20.002 4.48612 15.5157 0 10.0014 0ZM10.0014 18.8795C5.10509 18.8795 1.1209 14.8964 1.1209 10.0004C1.1209 5.10401 5.10509 1.12017 10.0014 1.12017C14.8978 1.12017 18.8816 5.10401 18.8816 10.0004C18.8816 14.896 14.8978 18.8795 10.0014 18.8795Z" fill="#E0634C"/>
<path d="M14.3552 9.4397H5.6461C5.33678 9.4397 5.08594 9.69097 5.08594 10.0004C5.08594 10.3097 5.33679 10.5606 5.6461 10.5606H14.3552C14.6645 10.5606 14.9154 10.3097 14.9154 10.0004C14.9155 9.69098 14.6645 9.4397 14.3552 9.4397Z" fill="#E0634C"/>
</svg>
