<svg width="30" height="30" viewBox="0 0 30 30" fill="none" xmlns="http://www.w3.org/2000/svg">
<circle cx="15" cy="15" r="14.75" fill="white" stroke="#929292" stroke-width="0.5"/>
<path d="M21.5762 16.6317H21.6979L21.6743 16.7511L21.153 19.3864C21.153 19.3864 21.153 19.3864 21.153 19.3864C20.9267 20.5309 20.0522 21.3478 19.0101 21.3478H10.9896C9.94773 21.3478 9.07313 20.5309 8.84678 19.3864L8.32561 16.7511L8.302 16.6317H8.42371H21.5762ZM20.6582 19.2897L20.6582 19.2897L21.0849 17.1328H8.91528L9.34187 19.2897C9.52565 20.2186 10.2111 20.8467 10.9898 20.8467H19.0103C19.7891 20.8467 20.4745 20.2187 20.6582 19.2897Z" fill="#828282" stroke="#828282" stroke-width="0.2"/>
<path d="M22 16.6317H22.1V16.7317V17.0328V17.1328H22H7.99999H7.89999V17.0328V16.7317V16.6317H7.99999H22Z" fill="#828282" stroke="#828282" stroke-width="0.2"/>
<path d="M11.1934 20.9967H11.2934V21.0967V21.9999V22.0999H11.1934H10.889H10.789V21.9999V21.0967V20.9967H10.889H11.1934Z" fill="#828282" stroke="#828282" stroke-width="0.2"/>
<path d="M18.8047 20.9967H18.9047V21.0967V21.9999V22.0999H18.8047H18.5003H18.4003V21.9999V21.0967V20.9967H18.5003H18.8047Z" fill="#828282" stroke="#828282" stroke-width="0.2"/>
<path d="M8.35606 16.9817H8.45606H8.76043H8.86043V16.8817V10.5092C8.86043 9.34784 9.81594 8.401 10.9925 8.401C11.802 8.401 12.5305 8.84426 12.8951 9.55736L8.35606 16.9817ZM8.35606 16.9817V16.8817M8.35606 16.9817V16.8817M8.35606 16.8817L8.35607 10.5091C8.35607 9.06936 9.53983 7.9 10.9925 7.9C11.9916 7.9 12.8935 8.44792 13.3449 9.33048L13.3449 9.33053M8.35606 16.8817L13.3449 9.33053M13.373 10.1936L13.4493 10.1305L13.6829 9.9373L13.7607 9.87291L13.6955 9.79572L13.4744 9.5338L13.373 10.1936ZM13.373 10.1936L13.3091 10.1179M13.373 10.1936L13.3091 10.1179M13.3091 10.1179L13.0879 9.85588C13.0879 9.85587 13.0879 9.85587 13.0879 9.85586M13.3091 10.1179L13.0879 9.85586M13.3449 9.33053C13.3901 9.4191 13.4313 9.48268 13.4743 9.53373L13.3449 9.33053ZM13.0879 9.85586C13.0879 9.85585 13.0879 9.85584 13.0879 9.85583M13.0879 9.85586L13.0879 9.85583M13.0879 9.85583C13.0171 9.77207 12.9559 9.67646 12.8951 9.55739L13.0879 9.85583Z" fill="#828282" stroke="#828282" stroke-width="0.2"/>
<path d="M12.6908 13.6037L12.7751 13.5516L17.1658 10.8436L17.2517 10.7906L17.1979 10.7052L17.1173 10.5774C17.1173 10.5774 17.1173 10.5774 17.1173 10.5774C16.333 9.33342 14.6725 8.95336 13.4162 9.72801L13.4162 9.72802C12.1589 10.5036 11.7731 12.1473 12.5576 13.392L12.6908 13.6037ZM12.6908 13.6037L12.638 13.5198L12.5577 13.3921L12.6908 13.6037ZM13.682 10.1537C12.7333 10.7388 12.3966 11.9317 12.8639 12.907L16.543 10.6379C15.8624 9.79417 14.6311 9.56843 13.682 10.1537Z" fill="#828282" stroke="#828282" stroke-width="0.2"/>
<path d="M17.3409 12.4232L17.4234 12.4815L17.3643 12.5634L17.1874 12.8083L17.1295 12.8886L17.0486 12.8315L16.6773 12.5691L16.5948 12.5108L16.6539 12.4288L16.8307 12.1839L16.8887 12.1036L16.9695 12.1608L17.3409 12.4232Z" fill="#828282" stroke="#828282" stroke-width="0.2"/>
<path d="M18.2706 13.0771L18.3531 13.1354L18.294 13.2173L18.1171 13.4623L18.0592 13.5425L17.9783 13.4854L17.5159 13.1587L17.4334 13.1004L17.4925 13.0184L17.6694 12.7735L17.7273 12.6932L17.8082 12.7504L18.2706 13.0771Z" fill="#828282" stroke="#828282" stroke-width="0.2"/>
<path d="M19.1026 13.6665L19.1851 13.7248L19.126 13.8067L18.9491 14.0516L18.8912 14.1319L18.8104 14.0748L18.4388 13.8122L18.3563 13.7539L18.4154 13.672L18.5923 13.4271L18.6502 13.3468L18.731 13.4039L19.1026 13.6665Z" fill="#828282" stroke="#828282" stroke-width="0.2"/>
<path d="M15.1743 13.1994L15.2719 13.2234L15.2474 13.3209L15.137 13.7592L15.1127 13.8556L15.0161 13.8318L14.7206 13.759L14.6231 13.7349L14.6476 13.6375L14.758 13.1992L14.7823 13.1027L14.8789 13.1265L15.1743 13.1994Z" fill="#828282" stroke="#828282" stroke-width="0.2"/>
<path d="M14.9302 14.1518L15.0278 14.1758L15.0032 14.2733L14.8738 14.7869L14.8495 14.8834L14.7529 14.8596L14.4575 14.7867L14.3599 14.7627L14.3845 14.6652L14.5139 14.1516L14.5382 14.0551L14.6348 14.0789L14.9302 14.1518Z" fill="#828282" stroke="#828282" stroke-width="0.2"/>
<path d="M14.6743 15.178L14.7719 15.2021L14.7474 15.2995L14.6371 15.7378L14.6128 15.8343L14.5162 15.8105L14.2208 15.7377L14.1232 15.7137L14.1477 15.6162L14.258 15.178L14.2823 15.0815L14.3789 15.1053L14.6743 15.178Z" fill="#828282" stroke="#828282" stroke-width="0.2"/>
<path d="M16.3677 13.2171L16.4217 13.3025L16.3358 13.3556L16.0778 13.5153L15.9936 13.5674L15.9407 13.4837L15.6986 13.1008L15.6446 13.0155L15.7305 12.9623L15.9885 12.8027L16.0727 12.7505L16.1256 12.8343L16.3677 13.2171Z" fill="#828282" stroke="#828282" stroke-width="0.2"/>
<path d="M17.063 14.313L17.117 14.3983L17.0311 14.4515L16.7731 14.6111L16.6889 14.6632L16.636 14.5795L16.2899 14.0322L16.236 13.9469L16.3218 13.8937L16.5798 13.7341L16.664 13.6819L16.717 13.7656L17.063 14.313Z" fill="#828282" stroke="#828282" stroke-width="0.2"/>
<path d="M17.647 15.2437L17.701 15.3291L17.6151 15.3822L17.3571 15.5419L17.2729 15.594L17.22 15.5103L16.9779 15.1274L16.9239 15.0421L17.0098 14.9889L17.2678 14.8293L17.352 14.7772L17.4049 14.8609L17.647 15.2437Z" fill="#828282" stroke="#828282" stroke-width="0.2"/>
</svg>
