<svg width="30" height="30" viewBox="0 0 30 30" fill="none" xmlns="http://www.w3.org/2000/svg">
<circle cx="15" cy="15" r="14.75" fill="white" stroke="#929292" stroke-width="0.5"/>
<path d="M22.2988 12.8909V12.5909H21.9988H20.499C20.3823 12.5909 20.299 12.5001 20.299 12.4018C20.299 12.3035 20.3823 12.2127 20.499 12.2127H21.6988H21.9988H21.9988V11.9127H22.2988V8.97817V8.67817H21.9988H15.6662H15.3662V8.97817V11.9127V12.2127H15.6662H18.1659C18.2826 12.2127 18.3659 12.3035 18.3659 12.4018C18.3659 12.5 18.2826 12.5909 18.1659 12.5909H15.6662H15.3662V12.8909V14.3581C15.3662 14.4564 15.2829 14.5472 15.1663 14.5472C15.0496 14.5472 14.9663 14.4564 14.9663 14.3581V8.97817V8.67817H14.6663H12.9999H12.6999V8.97817V18.1078V18.4078H12.9999H14.6663H14.9663V18.1078V16.6406C14.9663 16.5423 15.0496 16.4515 15.1663 16.4515C15.2829 16.4515 15.3662 16.5423 15.3662 16.6406V18.1078V18.4078H15.6662H21.9988H22.2988V18.1078V12.8909ZM12.4999 8.3H22.4987C22.6154 8.3 22.6987 8.39084 22.6987 8.48907V18.5969C22.6987 18.6952 22.6154 18.786 22.4987 18.786H12.4999C12.3833 18.786 12.3 18.6952 12.3 18.5969V8.4891C12.3 8.39084 12.3833 8.3 12.4999 8.3Z" stroke="#929292" stroke-width="0.6"/>
<path d="M22.8535 21.1851L21.8537 20.207C21.6585 20.016 21.3419 20.016 21.1467 20.207C20.9515 20.398 20.9515 20.7076 21.1467 20.8986L21.2931 21.0419H11.7085L11.8549 20.8986C12.0501 20.7077 12.0501 20.398 11.8549 20.207C11.6597 20.016 11.3431 20.016 11.1479 20.207L10.1481 21.1851C9.95154 21.3772 9.95492 21.6881 10.1481 21.877L11.1479 22.8551C11.3431 23.0461 11.6597 23.0461 11.8549 22.8551C12.0502 22.6641 12.0502 22.3544 11.8549 22.1634L11.7085 22.0201H21.2931L21.1467 22.1634C20.9514 22.3544 20.9514 22.6641 21.1467 22.8551C21.3419 23.0461 21.6584 23.0461 21.8537 22.8551L22.8535 21.8769C23.0484 21.6864 23.048 21.3752 22.8535 21.1851Z" fill="#929292"/>
<path d="M10.1462 18.2511L9.99975 18.3943V9.66986L10.1462 9.81311C10.3414 10.0041 10.658 10.0041 10.8532 9.81311C11.0485 9.62214 11.0485 9.31244 10.8532 9.12144L9.85332 8.14325C9.65812 7.95225 9.34155 7.95225 9.14631 8.14325L8.14644 9.12141C7.9512 9.31238 7.95117 9.62208 8.14644 9.81308C8.34165 10.0041 8.65822 10.0041 8.85345 9.81308L8.99988 9.66983V18.3943L8.85345 18.251C8.65825 18.06 8.34168 18.06 8.14644 18.251C7.9512 18.442 7.95117 18.7517 8.14644 18.9427L9.14631 19.9209C9.34152 20.1119 9.65809 20.1119 9.85332 19.9209L10.8532 18.9427C11.0484 18.7517 11.0485 18.442 10.8532 18.251C10.658 18.0601 10.3414 18.0601 10.1462 18.2511Z" fill="#929292"/>
</svg>
