<svg width="15" height="14" viewBox="0 0 15 14" fill="none" xmlns="http://www.w3.org/2000/svg">
<path fill-rule="evenodd" clip-rule="evenodd" d="M10.6651 3.84944L11.0534 3.36648C11.5855 2.70635 11.4777 1.74188 10.8117 1.2132L10.7873 1.1932C10.1228 0.664525 9.15203 0.771689 8.61989 1.43325L8.233 1.91477L10.6651 3.84944ZM8.30236 7.90917C8.31529 8.02632 8.37427 8.13778 8.4735 8.2178C8.67342 8.3764 8.96539 8.34497 9.12503 8.14636L11.7929 4.83142C11.9555 4.62995 11.9195 4.33418 11.711 4.177C11.5096 4.02554 11.2205 4.06841 11.0623 4.26416L10.802 4.58708L10.3562 4.23273L10.3576 4.2313L7.92697 2.2952L1.70807 10.0182L4.14012 11.9528L9.77942 4.95144L10.2253 5.3058L8.40158 7.57053C8.32107 7.6691 8.28943 7.792 8.30236 7.90917ZM3.73641 12.3096L1.44531 10.4863C1.40792 10.6135 1.38922 10.7249 1.38922 10.7249L0.864263 13.2226C0.826869 13.4026 1.01096 13.5498 1.17924 13.4726L3.5178 12.4153C3.51636 12.4153 3.61992 12.3724 3.73641 12.3096ZM13.6678 12.7564C13.6477 12.7564 13.629 12.7579 13.6089 12.7607L10.0751 13.2151C9.89392 13.238 9.76735 13.0408 9.86516 12.8865C9.91835 12.805 9.97013 12.7221 10.0219 12.6393C10.1585 12.4192 9.97588 12.1263 9.72276 12.1263C9.7055 12.1263 9.68824 12.1277 9.66954 12.1306L5.03843 12.8222L4.48471 12.905L2.97457 13.1308C2.80342 13.1565 2.68836 13.3008 2.70275 13.4737C2.7085 13.5509 2.74014 13.6237 2.79048 13.678C2.84945 13.7423 2.93142 13.7781 3.02059 13.7781C3.03785 13.7781 3.05511 13.7766 3.07381 13.7738L8.59376 12.9493C8.78217 12.9207 8.91161 13.1322 8.80086 13.2865C8.76491 13.3351 8.72895 13.3851 8.693 13.4337C8.59376 13.568 8.61676 13.7924 8.73181 13.9081C8.79078 13.9681 8.86558 13.9995 8.94469 13.9995C8.95332 13.9995 8.96337 13.9995 8.972 13.9981H8.97345H8.97489L13.7398 13.3951H13.7412H13.7426C13.8246 13.3823 13.8965 13.3351 13.944 13.2622C13.9958 13.1822 14.0145 13.0836 13.9915 12.995C13.954 12.8507 13.8275 12.7564 13.6678 12.7564Z" fill="#0D2F3F"/>
<mask id="mask0_1_6137" style="mask-type:luminance" maskUnits="userSpaceOnUse" x="0" y="0" width="15" height="14">
<path fill-rule="evenodd" clip-rule="evenodd" d="M10.6651 3.84944L11.0534 3.36648C11.5855 2.70635 11.4777 1.74188 10.8117 1.2132L10.7873 1.1932C10.1228 0.664525 9.15203 0.771689 8.61989 1.43325L8.233 1.91477L10.6651 3.84944ZM8.30236 7.90917C8.31529 8.02632 8.37427 8.13778 8.4735 8.2178C8.67342 8.3764 8.96539 8.34497 9.12503 8.14636L11.7929 4.83142C11.9555 4.62995 11.9195 4.33418 11.711 4.177C11.5096 4.02554 11.2205 4.06841 11.0623 4.26416L10.802 4.58708L10.3562 4.23273L10.3576 4.2313L7.92697 2.2952L1.70807 10.0182L4.14012 11.9528L9.77942 4.95144L10.2253 5.3058L8.40158 7.57053C8.32107 7.6691 8.28943 7.792 8.30236 7.90917ZM3.73641 12.3096L1.44531 10.4863C1.40792 10.6135 1.38922 10.7249 1.38922 10.7249L0.864263 13.2226C0.826869 13.4026 1.01096 13.5498 1.17924 13.4726L3.5178 12.4153C3.51636 12.4153 3.61992 12.3724 3.73641 12.3096ZM13.6678 12.7564C13.6477 12.7564 13.629 12.7579 13.6089 12.7607L10.0751 13.2151C9.89392 13.238 9.76735 13.0408 9.86516 12.8865C9.91835 12.805 9.97013 12.7221 10.0219 12.6393C10.1585 12.4192 9.97588 12.1263 9.72276 12.1263C9.7055 12.1263 9.68824 12.1277 9.66954 12.1306L5.03843 12.8222L4.48471 12.905L2.97457 13.1308C2.80342 13.1565 2.68836 13.3008 2.70275 13.4737C2.7085 13.5509 2.74014 13.6237 2.79048 13.678C2.84945 13.7423 2.93142 13.7781 3.02059 13.7781C3.03785 13.7781 3.05511 13.7766 3.07381 13.7738L8.59376 12.9493C8.78217 12.9207 8.91161 13.1322 8.80086 13.2865C8.76491 13.3351 8.72895 13.3851 8.693 13.4337C8.59376 13.568 8.61676 13.7924 8.73181 13.9081C8.79078 13.9681 8.86558 13.9995 8.94469 13.9995C8.95332 13.9995 8.96337 13.9995 8.972 13.9981H8.97345H8.97489L13.7398 13.3951H13.7412H13.7426C13.8246 13.3823 13.8965 13.3351 13.944 13.2622C13.9958 13.1822 14.0145 13.0836 13.9915 12.995C13.954 12.8507 13.8275 12.7564 13.6678 12.7564Z" fill="white"/>
</mask>
<g mask="url(#mask0_1_6137)">
</g>
</svg>
