<svg width="24" height="24" viewBox="0 0 24 24" fill="none" xmlns="http://www.w3.org/2000/svg">
<path d="M12 0C5.373 0 0 5.373 0 12C0 18.627 5.373 24 12 24C18.627 24 24 18.627 24 12C24 5.373 18.627 0 12 0ZM10.6134 17.1797V11.6863C10.6134 11.1909 10.8777 10.7332 11.3066 10.4855C11.7357 10.2379 12.2644 10.2379 12.6934 10.4855C13.1223 10.7332 13.3867 11.1911 13.3867 11.6865V17.1799C13.3867 17.6754 13.1223 18.1329 12.6934 18.3807C12.2643 18.6283 11.7357 18.6283 11.3066 18.3807C10.8777 18.1329 10.6134 17.6752 10.6134 17.1797ZM12 8.78657C11.5581 8.78657 11.134 8.61112 10.8214 8.29855C10.5089 7.986 10.3332 7.5621 10.3332 7.11998C10.3332 6.67804 10.5089 6.25414 10.8214 5.94141C11.134 5.62885 11.5581 5.4534 12 5.4534C12.4419 5.4534 12.866 5.62884 13.1786 5.94141C13.4911 6.25413 13.6668 6.67804 13.6668 7.11998C13.6668 7.5621 13.4911 7.986 13.1786 8.29855C12.866 8.61111 12.4419 8.78657 12 8.78657Z" fill="#D2D0D0"/>
</svg>
