<svg width="20" height="20" viewBox="0 0 20 20" fill="none" xmlns="http://www.w3.org/2000/svg">
<path fill-rule="evenodd" clip-rule="evenodd" d="M15.834 16.6666C16.2942 16.6666 16.6673 16.2935 16.6673 15.8333C16.6673 15.373 16.2942 14.9999 15.834 14.9999C15.3737 14.9999 15.0007 15.373 15.0007 15.8333C15.0007 16.2935 15.3737 16.6666 15.834 16.6666ZM15.834 18.3333C17.2147 18.3333 18.334 17.214 18.334 15.8333C18.334 14.4525 17.2147 13.3333 15.834 13.3333C14.4533 13.3333 13.334 14.4525 13.334 15.8333C13.334 17.214 14.4533 18.3333 15.834 18.3333Z" fill="#777E91"/>
<path fill-rule="evenodd" clip-rule="evenodd" d="M12.9173 3.33341C11.7667 3.33341 10.834 4.26615 10.834 5.41675V14.5834C10.834 16.6545 9.15505 18.3334 7.08398 18.3334C5.01292 18.3334 3.33398 16.6545 3.33398 14.5834V8.33342C3.33398 7.87318 3.70708 7.50008 4.16732 7.50008C4.62756 7.50008 5.00065 7.87318 5.00065 8.33342V14.5834C5.00065 15.734 5.93339 16.6667 7.08398 16.6667C8.23458 16.6667 9.16732 15.734 9.16732 14.5834V5.41675C9.16732 3.34568 10.8463 1.66675 12.9173 1.66675C14.9884 1.66675 16.6673 3.34568 16.6673 5.41675V10.8334C16.6673 11.2937 16.2942 11.6667 15.834 11.6667C15.3737 11.6667 15.0007 11.2937 15.0007 10.8334V5.41675C15.0007 4.26616 14.0679 3.33341 12.9173 3.33341Z" fill="#777E91"/>
<path d="M3.44776 2.06725C3.76933 1.51599 4.56583 1.516 4.88739 2.06725L6.3532 4.58006C6.67727 5.1356 6.27654 5.83328 5.63338 5.83328H2.70178C2.05862 5.83328 1.65789 5.1356 1.98196 4.58005L3.44776 2.06725Z" fill="#777E91"/>
</svg>
