<svg width="14" height="20" viewBox="0 0 14 20" fill="none" xmlns="http://www.w3.org/2000/svg">
<path d="M14 7C14 6.08075 13.8189 5.1705 13.4672 4.32122C13.1154 3.47194 12.5998 2.70026 11.9497 2.05025C11.2997 1.40024 10.5281 0.884626 9.67878 0.532843C8.8295 0.18106 7.91925 0 7 0C6.08075 0 5.17049 0.18106 4.32122 0.532843C3.47194 0.884626 2.70026 1.40024 2.05025 2.05025C1.40024 2.70026 0.884626 3.47194 0.532843 4.32122C0.18106 5.1705 -1.36979e-08 6.08075 0 7C0 8.38557 0.409154 9.67434 1.10285 10.7616C1.10378 10.7631 1.10273 10.765 1.101 10.765C1.09927 10.765 1.09819 10.7669 1.09912 10.7683C2.74527 13.3456 4.96594 16.819 6.15876 18.6845C6.55206 19.2995 7.44916 19.2973 7.84236 18.6822L12.9011 10.7679C12.9019 10.7667 12.901 10.765 12.8995 10.765C12.898 10.765 12.8971 10.7633 12.8979 10.762C13.6171 9.63908 13.9995 8.33357 14 7ZM7 10C6.20435 10 5.44129 9.68393 4.87868 9.12132C4.31607 8.55871 4 7.79565 4 7C4 6.20435 4.31607 5.44129 4.87868 4.87868C5.44129 4.31607 6.20435 4 7 4C7.79565 4 8.55871 4.31607 9.12132 4.87868C9.68393 5.44129 10 6.20435 10 7C10 7.79565 9.68393 8.55871 9.12132 9.12132C8.55871 9.68393 7.79565 10 7 10Z" fill="#399F6E"/>
</svg>
