<svg width="18" height="24" viewBox="0 0 18 24" fill="none" xmlns="http://www.w3.org/2000/svg">
<path d="M16.997 1.00323C16.9982 1.00896 16.9992 1.01582 16.9997 1.02392V1.03469V22.5957C16.985 22.6008 16.9714 22.6055 16.9591 22.6099L16.9461 22.6145L16.9391 22.6072L9.72047 15.1069L8.99998 14.3583L8.27947 15.1069L1.06089 22.6067L1.04713 22.621L1.04576 22.6225C1.0396 22.6222 1.03155 22.6208 1.02259 22.6175C1.01994 22.6166 1.01732 22.6155 1.01475 22.6143C1.00898 22.6058 1.00399 22.5974 1 22.5898L1.0002 1.03438V1.03437V1.03431C1.00019 1.03368 1.00019 1.0326 1.00138 1.02982C1.00293 1.02621 1.00626 1.02061 1.01202 1.01485C1.01778 1.00909 1.02338 1.00576 1.02697 1.00422C1.02973 1.00304 1.03081 1.00304 1.03147 1.00304H1.03152H1.03153L16.9689 1.00323L16.997 1.00323ZM16.9973 22.6192C16.9973 22.6193 16.9974 22.619 16.9976 22.6185L16.9973 22.6192Z" stroke="#0D2F3F" stroke-width="2"/>
</svg>
