<svg width="22" height="22" viewBox="0 0 22 22" fill="none" xmlns="http://www.w3.org/2000/svg">
<path d="M18.4643 14.9282H3.53571C1.5872 14.9282 0 16.5154 0 18.4639C0 20.4125 1.5872 21.9997 3.53571 21.9997H18.4643C20.4128 21.9997 22 20.4125 22 18.4639C22 16.5154 20.4128 14.9282 18.4643 14.9282ZM5.22893 18.9274C5.40958 19.0453 5.45693 19.2926 5.33503 19.4696C5.2605 19.5835 5.13466 19.6462 5.00882 19.6462C4.93429 19.6462 4.85558 19.6226 4.78872 19.5794L4.22311 19.1986V19.8389C4.22311 20.0551 4.0462 20.2318 3.83026 20.2318C3.61431 20.2318 3.4374 20.0551 3.4374 19.8389V19.1986L2.8718 19.5796C2.80493 19.6228 2.72623 19.6465 2.65169 19.6465C2.52607 19.6465 2.40023 19.5835 2.32548 19.4698C2.20359 19.2929 2.25094 19.0453 2.43158 18.9276L3.12324 18.4639L2.43181 18.0005C2.25116 17.8826 2.20381 17.6353 2.3257 17.4583C2.4476 17.2777 2.69116 17.2266 2.8718 17.3483L3.4374 17.7293V17.089C3.4374 16.8728 3.61432 16.6961 3.83026 16.6961C4.0462 16.6961 4.22312 16.8728 4.22312 17.089V17.7293L4.78872 17.3483C4.96937 17.2266 5.21315 17.2777 5.33482 17.4583C5.45671 17.6353 5.40936 17.8828 5.22871 18.0005L4.53729 18.4639L5.22893 18.9274ZM10.1396 18.9274C10.3203 19.0453 10.3676 19.2926 10.2457 19.4696C10.1712 19.5835 10.0454 19.6462 9.91954 19.6462C9.845 19.6462 9.76629 19.6226 9.69943 19.5794L9.13383 19.1986V19.8389C9.13383 20.0551 8.95691 20.2318 8.74097 20.2318C8.52503 20.2318 8.34811 20.0551 8.34811 19.8389V19.1986L7.78251 19.5796C7.71565 19.6228 7.63694 19.6465 7.5624 19.6465C7.43679 19.6465 7.31095 19.5835 7.23619 19.4698C7.1143 19.2929 7.16166 19.0453 7.3423 18.9276L8.03395 18.4639L7.34252 18.0005C7.16188 17.8826 7.11452 17.6353 7.23642 17.4583C7.35831 17.2777 7.60187 17.2266 7.78252 17.3483L8.34812 17.7293V17.089C8.34812 16.8728 8.52503 16.6961 8.74098 16.6961C8.95692 16.6961 9.13383 16.8728 9.13383 17.089V17.7293L9.69943 17.3483C9.88008 17.2266 10.1239 17.2777 10.2455 17.4583C10.3674 17.6353 10.3201 17.8828 10.1394 18.0005L9.448 18.4639L10.1396 18.9274ZM14.8539 18.9274C15.0346 19.0453 15.0819 19.2926 14.96 19.4696C14.8855 19.5835 14.7597 19.6462 14.6338 19.6462C14.5593 19.6462 14.4806 19.6226 14.4137 19.5794L13.8481 19.1986V19.8389C13.8481 20.0551 13.6712 20.2318 13.4553 20.2318C13.2393 20.2318 13.0624 20.0551 13.0624 19.8389V19.1986L12.4968 19.5796C12.4299 19.6228 12.3512 19.6465 12.2767 19.6465C12.1511 19.6465 12.0252 19.5835 11.9505 19.4698C11.8286 19.2929 11.8759 19.0453 12.0566 18.9276L12.7482 18.4639L12.0568 18.0005C11.8762 17.8826 11.8288 17.6353 11.9507 17.4583C12.0726 17.2777 12.3162 17.2266 12.4968 17.3483L13.0624 17.7293V17.089C13.0624 16.8728 13.2393 16.6961 13.4553 16.6961C13.6712 16.6961 13.8481 16.8728 13.8481 17.089V17.7293L14.4137 17.3483C14.5944 17.2266 14.8381 17.2777 14.9598 17.4583C15.0817 17.6353 15.0344 17.8828 14.8537 18.0005L14.1623 18.4639L14.8539 18.9274ZM19.5682 18.9274C19.7489 19.0453 19.7962 19.2926 19.6743 19.4696C19.5998 19.5835 19.4739 19.6462 19.3481 19.6462C19.2736 19.6462 19.1949 19.6226 19.128 19.5794L18.5624 19.1986V19.8389C18.5624 20.0551 18.3855 20.2318 18.1695 20.2318C17.9536 20.2318 17.7767 20.0551 17.7767 19.8389V19.1986L17.2111 19.5796C17.1442 19.6228 17.0655 19.6465 16.991 19.6465C16.8654 19.6465 16.7395 19.5835 16.6648 19.4698C16.5429 19.2929 16.5902 19.0453 16.7709 18.9276L17.4625 18.4639L16.7711 18.0005C16.5904 17.8826 16.5431 17.6353 16.665 17.4583C16.7869 17.2777 17.0304 17.2266 17.2111 17.3483L17.7767 17.7293V17.089C17.7767 16.8728 17.9536 16.6961 18.1695 16.6961C18.3855 16.6961 18.5624 16.8728 18.5624 17.089V17.7293L19.128 17.3483C19.3087 17.2266 19.5524 17.2777 19.6741 17.4583C19.796 17.6353 19.7486 17.8828 19.568 18.0005L18.8766 18.4639L19.5682 18.9274Z" fill="#0D2F3F"/>
<path d="M7.07057 13.3571H14.9277C15.1437 13.3571 15.3206 13.1804 15.3206 12.9643V5.89283C15.3206 5.67667 15.1437 5.49998 14.9277 5.49998H13.7491V2.74998C13.7491 2.59104 13.7349 2.43495 13.7086 2.29311C13.4887 0.964577 12.3489 0 10.9992 0C9.64942 0 8.50963 0.964633 8.29125 2.28547C8.26341 2.43499 8.24916 2.59108 8.24916 2.75002V5.50002H7.07059C6.85465 5.50002 6.67773 5.67671 6.67773 5.89287V12.9643C6.67773 13.1805 6.85465 13.3572 7.07059 13.3572L7.07057 13.3571ZM11.7849 11.0982H10.2134L10.5276 9.59737C10.2253 9.43251 10.017 9.11024 10.017 8.74105C10.017 8.19889 10.457 7.75891 10.9991 7.75891C11.5413 7.75891 11.9813 8.19889 11.9813 8.74105C11.9813 9.11023 11.773 9.43248 11.4707 9.59737L11.7849 11.0982ZM9.03486 2.74998C9.03486 2.63905 9.0445 2.53141 9.06489 2.42113C9.22186 1.47362 10.0352 0.78567 10.9992 0.78567C11.9631 0.78567 12.7764 1.47362 12.9349 2.42877C12.9538 2.53136 12.9634 2.63901 12.9634 2.74994V5.49994H9.03486L9.03486 2.74998Z" fill="#0D2F3F"/>
</svg>
