<svg width="146" height="193" viewBox="0 0 146 193" fill="none" xmlns="http://www.w3.org/2000/svg">
<path d="M146 0.0177192C145.741 0.00698108 145.472 0.00109716 145.195 2.33549e-05C144.928 2.33549e-05 144.67 0.00404306 144.421 0.012902H1.5792C1.32949 0.00444573 1.07097 -0.000379323 0.804839 2.33549e-05C0.527482 2.33549e-05 0.25892 0.00724953 0 0.0177192C1.08217 2.13419 1.8365 3.91686 2.31265 5.1116C5.76679 13.7776 6.51191 21.1861 6.50109 24.722C6.49655 26.2388 6.49186 27.7555 6.48705 29.2723H6.50109V128.548H6.49424V188.542C6.49424 192.864 12.0254 194.656 14.5051 191.125C28.5077 171.182 49.9519 153.54 72.5345 153.213C95.8188 152.876 117.304 170.595 131.477 191.011C133.943 194.563 139.499 192.771 139.499 188.441V29.2743H139.513C139.508 27.7573 139.503 26.2405 139.499 24.724C139.488 21.1869 140.233 13.7784 143.687 5.11362C144.163 3.91686 144.919 2.13379 146 0.0177192Z" fill="#FFC62D"/>
</svg>
