<svg width="16" height="16" viewBox="0 0 16 16" fill="none" xmlns="http://www.w3.org/2000/svg">
<path d="M11.0454 14.6668C11.2224 14.6678 11.3979 14.6335 11.5616 14.566C11.7253 14.4985 11.8739 14.399 11.9987 14.2734L13.8054 12.4668C13.9296 12.3419 13.9992 12.1729 13.9992 11.9968C13.9992 11.8206 13.9296 11.6517 13.8054 11.5268L11.1387 8.86009C11.0138 8.73593 10.8448 8.66623 10.6687 8.66623C10.4926 8.66623 10.3236 8.73593 10.1987 8.86009L9.13205 9.92009C8.39355 9.72319 7.70959 9.36069 7.13205 8.86009C6.6328 8.28163 6.27047 7.598 6.07205 6.86009L7.13205 5.79343C7.25622 5.66852 7.32592 5.49955 7.32592 5.32343C7.32592 5.1473 7.25622 4.97834 7.13205 4.85343L4.46539 2.18676C4.34048 2.06259 4.17151 1.9929 3.99539 1.9929C3.81926 1.9929 3.6503 2.06259 3.52539 2.18676L1.72539 4.00009C1.59981 4.12492 1.50035 4.27351 1.43282 4.43719C1.36529 4.60087 1.33103 4.77637 1.33205 4.95343C1.39254 7.51496 2.4161 9.95962 4.19872 11.8001C6.0392 13.5827 8.48386 14.6063 11.0454 14.6668ZM3.99872 3.60676L5.72539 5.33343L4.86539 6.19343C4.78393 6.26973 4.72294 6.36525 4.688 6.47125C4.65305 6.57724 4.64528 6.69031 4.66539 6.80009C4.91457 7.91367 5.44213 8.94586 6.19872 9.80009C7.05229 10.5577 8.08474 11.0854 9.19872 11.3334C9.30684 11.356 9.41888 11.3514 9.52477 11.32C9.63066 11.2886 9.72709 11.2313 9.80539 11.1534L10.6654 10.2734L12.3921 12.0001L11.0587 13.3334C8.84787 13.2765 6.73839 12.3942 5.14539 10.8601C3.60733 9.26643 2.72246 7.15417 2.66539 4.94009L3.99872 3.60676ZM13.3321 7.33343H14.6654C14.6827 6.54076 14.5393 5.7528 14.2439 5.01703C13.9485 4.28126 13.5072 3.61292 12.9465 3.05229C12.3859 2.49166 11.7176 2.05034 10.9818 1.75493C10.246 1.45952 9.45805 1.31614 8.66539 1.33343V2.66676C9.28399 2.64536 9.90038 2.75143 10.4763 2.97838C11.0521 3.20533 11.5751 3.54831 12.0128 3.98599C12.4505 4.42367 12.7935 4.9467 13.0204 5.52256C13.2474 6.09843 13.3535 6.71482 13.3321 7.33343Z" fill="white"/>
<path d="M8.66797 5.33333C10.068 5.33333 10.668 5.93333 10.668 7.33333H12.0013C12.0013 5.18667 10.8146 4 8.66797 4V5.33333Z" fill="white"/>
</svg>
