<svg width="61" height="60" viewBox="0 0 61 60" fill="none" xmlns="http://www.w3.org/2000/svg">
<path d="M41.5859 1.46818L44.6748 6.92708L50.0498 9.92999L54.823 6.3434L59.1067 0.875257C58.4416 0.818951 50.9412 -1.40719 41.5859 1.46818Z" fill="#399F6E"/>
<path d="M59.1116 0.875488L50.0547 9.93022L52.9004 15.146L58.5187 18.3922C61.4276 8.93285 59.1729 1.60094 59.1116 0.875488Z" fill="#399F6E"/>
<path d="M12.3633 12.4447L19.5043 19.584L21.1787 18.2908L21.7547 16.8439L19.3732 12.0923L14.8589 9.94971L12.3633 12.4447Z" fill="#FFC62D"/>
<path d="M29.7077 8.03171L19.3638 5.44629L14.8594 9.94953L21.7552 16.8437L25.6423 14.8434L29.7077 8.03171Z" fill="#399F6E"/>
<path d="M47.5784 47.6485L50.074 45.1536L47.3138 41.2084L43.1512 38.2324L41.2596 39.0024L40.4375 40.5092L47.5784 47.6485Z" fill="#FFC62D"/>
<path d="M54.5756 40.6501L51.9897 30.3086L45.302 34.4989L43.1484 38.2324L50.0712 45.1535L54.5756 40.6501Z" fill="#399F6E"/>
<path d="M15.5941 31.8476L18.1127 29.3296L11.4922 35.9485L17.78 42.235L21.0078 40.6844L21.8822 38.1339L20.0642 33.9457L15.5941 31.8476Z" fill="#0D2F3F"/>
<path d="M22.3825 31.3467L18.1123 29.3296L15.5938 31.8476L21.8818 38.1339L23.2244 37.6846L24.4001 35.6161L22.3825 31.3467Z" fill="#399F6E"/>
<path d="M17.7773 42.2357L24.0653 48.5222L28.1678 44.4207L25.9215 39.8041L21.88 38.1343L17.7773 42.2357Z" fill="#FFC62D"/>
<path d="M28.9374 37.8989L24.4015 35.6162L21.8828 38.1344L28.1706 44.4208L30.6894 41.9025L28.9374 37.8989Z" fill="#FFC62D"/>
<path d="M41.5874 1.46826C35.1893 3.43528 29.5289 7.27625 25.337 12.5095L14.4297 25.6497L24.3787 35.5964L39.1814 23.1682L50.0514 9.92995L41.5874 1.46826Z" fill="#F9F9F9"/>
<path d="M24.3828 35.5962L34.3321 45.5429L47.4755 34.6384C52.7006 30.4553 56.5482 24.8004 58.5195 18.3916L50.0555 9.92969L24.3828 35.5962Z" fill="#DCDCDC"/>
<path d="M0 47.427L8.96851 38.4585L11.4829 40.9729L2.51441 49.9414L0 47.427Z" fill="#FFC62D"/>
<path d="M10.0547 57.4863L19.0242 48.5188L21.539 51.033L12.5695 60.0005L10.0547 57.4863Z" fill="#399F6E"/>
<path d="M14.0017 43.4927L2.51562 54.9761L3.77314 56.2333L10.2529 51.0125L15.2594 44.7499L14.0017 43.4927Z" fill="#FFC62D"/>
<path d="M3.77344 56.2261L15.2565 44.743L16.5137 46.0002L5.0306 57.4832L3.77344 56.2261Z" fill="#399F6E"/>
<path d="M32.4447 17.4739C29.6645 20.2533 29.6641 24.7522 32.4446 27.532L38.9735 23.3754L42.5053 17.4739C39.7249 14.6946 35.2253 14.6939 32.4447 17.4739Z" fill="#FFC62D"/>
<path d="M42.5061 17.4736L32.4453 27.5318L32.4454 27.5319C35.2253 30.3111 39.7254 30.3119 42.5061 27.5319C45.2799 24.7588 45.2799 20.2467 42.5061 17.4736Z" fill="#399F6E"/>
<path d="M34.9607 19.9883C33.5705 21.3781 33.5704 23.6274 34.9606 25.0174L38.6187 23.7308L39.9908 19.9882C38.6004 18.5983 36.3507 18.5983 34.9607 19.9883Z" fill="#399F6E"/>
<path d="M39.9914 19.9883L34.9609 25.0175H34.9611C36.3509 26.4072 38.6009 26.4077 39.9915 25.0175V25.0176C41.3782 23.6311 41.3782 21.3751 39.9915 19.9884L39.9914 19.9883Z" fill="#FFC62D"/>
</svg>
