<svg width="20" height="20" viewBox="0 0 20 20" fill="none" xmlns="http://www.w3.org/2000/svg">
<path d="M17.7256 8.97277V3.41183C17.7256 2.28105 16.8057 1.36108 15.6749 1.36108H4.32504C3.19426 1.36108 2.27437 2.28105 2.27437 3.41183V8.97277C0.971406 9.28621 0 10.4607 0 11.8585V16.0062C0 16.3353 0.266758 16.6021 0.59582 16.6021H2.27434V18.0431C2.27434 18.3722 2.54109 18.6389 2.87016 18.6389C3.19922 18.6389 3.46598 18.3722 3.46598 18.0431V16.6021H16.5339V18.0431C16.5339 18.3722 16.8007 18.6389 17.1298 18.6389C17.4588 18.6389 17.7256 18.3722 17.7256 18.0431V16.6021H19.4041C19.7332 16.6021 19.9999 16.3353 19.9999 16.0062V11.8585C20 10.4607 19.0286 9.28621 17.7256 8.97277ZM3.46602 3.41183C3.46602 2.93816 3.85141 2.55276 4.32504 2.55276H15.6749C16.1486 2.55276 16.534 2.93816 16.534 3.41183V8.89003H14.565V7.95003C14.565 6.39261 13.298 5.12558 11.7406 5.12558H8.25949C6.70207 5.12558 5.43504 6.39265 5.43504 7.95003V8.88999H3.46602V3.41183ZM13.3734 7.95003V8.88999H6.6266V7.95003C6.6266 7.04968 7.35906 6.31722 8.25941 6.31722H11.7405C12.6409 6.31718 13.3734 7.04972 13.3734 7.95003ZM1.19164 15.4104V11.8585C1.19164 10.8787 1.98871 10.0817 2.96844 10.0817H17.0315C18.0112 10.0817 18.8083 10.8787 18.8083 11.8585V15.4104H1.19164Z" fill="#929292"/>
</svg>
