<svg width="14" height="14" viewBox="0 0 14 14" fill="none" xmlns="http://www.w3.org/2000/svg">
<g clip-path="url(#clip0_1_3831)">
<path d="M6.34741 2.44835C6.51826 2.61919 6.51826 2.89621 6.34741 3.06706C6.17657 3.2379 5.89955 3.2379 5.72871 3.06706L4.15535 1.4937V13.5625C4.15535 13.8041 3.95949 14 3.71785 14C3.47621 14 3.28035 13.8041 3.28035 13.5625V1.49375L1.70702 3.06706C1.6216 3.15248 1.5096 3.19519 1.39768 3.19522C1.28568 3.19522 1.17376 3.15251 1.08834 3.06706C0.917494 2.89621 0.917494 2.61919 1.08834 2.44835L3.40856 0.128153C3.57943 -0.0427178 3.85645 -0.0427178 4.02727 0.128153L6.34741 2.44835ZM12.9099 10.9329C12.7391 10.7621 12.4621 10.7621 12.2912 10.9329L10.7179 12.5063V0.43752C10.7179 0.195884 10.522 2.05128e-05 10.2804 2.05128e-05C10.0388 2.05128e-05 9.8429 0.195884 9.8429 0.43752V12.5063L8.26957 10.9329C8.09878 10.7621 7.82176 10.7621 7.65086 10.9329C7.48002 11.1038 7.47999 11.3808 7.65086 11.5517L9.97103 13.8719C10.0531 13.9539 10.1644 14 10.2804 14C10.3964 14 10.5077 13.9539 10.5897 13.8719L12.9099 11.5517C13.0808 11.3808 13.0808 11.1038 12.9099 10.9329Z" fill="#0D2F3F"/>
</g>
<defs>
<clipPath id="clip0_1_3831">
<rect width="14" height="14" fill="white" transform="translate(-0.000976562)"/>
</clipPath>
</defs>
</svg>
