<svg width="20" height="23" viewBox="0 0 20 23" fill="none" xmlns="http://www.w3.org/2000/svg">
<path d="M9.95976 11.9972C13.177 11.9972 15.8004 9.30646 15.8004 5.99632C15.8004 2.68617 13.177 0 9.95976 0C6.74254 0 4.11914 2.69075 4.11914 5.99632C4.11914 9.30188 6.74254 11.9972 9.95976 11.9972ZM9.95976 1.90429C12.1556 1.90429 13.9419 3.73966 13.9419 5.99573C13.9419 8.25179 12.1556 10.0872 9.95976 10.0872C7.76395 10.0872 5.9776 8.25179 5.9776 5.99573C5.97735 3.73992 7.76395 1.90429 9.95976 1.90429Z" fill="#0D2F3F"/>
<path d="M18.0848 11.2852C17.7832 10.86 17.2072 10.7629 16.7889 11.0679C16.375 11.3777 16.2805 11.9695 16.5773 12.3993C17.5493 13.7862 18.0622 15.4229 18.0622 17.1334C18.0622 19.4727 17.0902 20.1707 16.1453 20.5455C14.7504 21.0956 12.6175 21.0956 10.3631 21.091H9.55314C7.29865 21.091 5.16597 21.0956 3.77093 20.5455C2.82156 20.171 1.85406 19.473 1.85406 17.1334C1.85406 15.3488 2.41214 13.6521 3.46489 12.2281C3.77538 11.8075 3.69434 11.2111 3.28939 10.8921C2.88443 10.573 2.29948 10.6563 1.98898 11.0724C0.688578 12.8337 0 14.9281 0 17.1333C0 18.5156 0.269971 19.6113 0.823366 20.4942C1.33646 21.3126 2.11034 21.9319 3.11362 22.325C4.83264 23.0001 7.02393 23.0001 9.56155 23.0001H10.3715H10.7809C13.1477 23.0001 15.1951 22.9676 16.8197 22.325C17.8233 21.9274 18.5926 21.3126 19.11 20.4942C19.6633 19.6159 19.9333 18.5155 19.9333 17.1333C19.9204 15.0254 19.286 13.0005 18.0845 11.2851L18.0848 11.2852Z" fill="#0D2F3F"/>
</svg>
