<svg width="23" height="22" viewBox="0 0 23 22" fill="none" xmlns="http://www.w3.org/2000/svg">
<path d="M21.8841 13.8136L20.3897 12.0999L18.7331 13.6456C18.5464 13.8199 18.5314 14.1177 18.7 14.3108C18.8685 14.5045 19.1564 14.5195 19.3435 14.3451L19.8773 13.8471C19.2683 18.2142 15.4091 21.3455 11.1324 20.8756C10.8824 20.8474 10.6583 21.0353 10.6315 21.2939C10.6051 21.553 10.7863 21.7848 11.0363 21.8121C11.3542 21.8474 11.6704 21.8644 11.9837 21.8644C16.3669 21.8644 20.1597 18.5107 20.7823 13.9568L21.2076 14.4444C21.2974 14.5475 21.4217 14.6004 21.546 14.6004C21.6548 14.6004 21.7636 14.5603 21.8507 14.4789C22.0376 14.3046 22.0527 14.0068 21.8842 13.8137L21.8841 13.8136Z" fill="#0D2F3F"/>
<path d="M11.5684 11.0229V11.494H21.1332V11.0229C21.1332 8.7386 19.6283 6.81078 17.5902 6.24495C18.5016 5.77335 19.1291 4.79764 19.1291 3.67377C19.1291 2.08902 17.8824 0.800049 16.3508 0.800049C14.8187 0.800049 13.5725 2.08902 13.5725 3.67377C13.5725 4.79786 14.1997 5.77301 15.1109 6.24495C13.0728 6.81126 11.5684 8.7386 11.5684 11.0229H11.5684Z" fill="#0D2F3F"/>
<path d="M12.5289 1.91016L11.0709 0.163379C10.9065 -0.033473 10.619 -0.0556809 10.4287 0.114419C10.2384 0.284519 10.2169 0.582137 10.3814 0.779191L10.7731 1.24846C5.96798 0.881005 1.72422 4.56685 1.26574 9.55101C1.24199 9.81012 1.42564 10.04 1.67614 10.065C1.69078 10.0664 1.70526 10.0669 1.7199 10.0669C1.95219 10.0669 2.15032 9.88416 2.17309 9.64054C2.58756 5.12918 6.45683 1.80273 10.8139 2.19727L10.245 2.70505C10.0547 2.87515 10.0337 3.17247 10.1982 3.36931C10.2883 3.47715 10.4155 3.53285 10.543 3.53285C10.6488 3.53285 10.7548 3.49516 10.8404 3.41844L12.5289 1.91016Z" fill="#0D2F3F"/>
<path d="M6.02172 16.7508C6.93314 16.2792 7.56069 15.3035 7.56069 14.1796C7.56069 12.5949 6.314 11.3059 4.78236 11.3059C3.25022 11.3059 2.00403 12.5949 2.00403 14.1796C2.00403 15.3037 2.63125 16.2789 3.5425 16.7508C1.50433 17.3171 0 19.2443 0 21.5288V21.9999H9.5648V21.5288C9.56497 19.2445 8.05998 17.3166 6.0218 16.7508H6.02172Z" fill="#0D2F3F"/>
</svg>
