<svg width="32" height="32" viewBox="0 0 32 32" fill="none" xmlns="http://www.w3.org/2000/svg">
<path d="M20.7375 29.0001H11.2642C8.32416 29.0001 6.7041 27.3894 6.7041 24.4667C6.7041 21.2614 8.51753 17.5188 13.6309 17.5188H18.3708C23.4841 17.5188 25.2975 21.2614 25.2975 24.4667C25.2975 27.3894 23.6775 29.0001 20.7375 29.0001ZM13.6309 19.5188C9.05886 19.5188 8.7041 23.3054 8.7041 24.4667C8.7041 26.2667 9.44683 27.0001 11.2642 27.0001H20.7375C22.5548 27.0001 23.2975 26.2654 23.2975 24.4667C23.2975 23.3054 22.9414 19.5188 18.3708 19.5188H13.6309ZM16.0109 15.6827C13.2496 15.6827 11.0028 13.4361 11.0028 10.6747C11.0028 7.91339 13.2496 5.66675 16.0109 5.66675C18.7722 5.66675 21.0202 7.91339 21.0202 10.6747C21.0202 13.4361 18.7722 15.6827 16.0109 15.6827ZM16.0109 7.66675C14.3522 7.66675 13.0028 9.01606 13.0028 10.6747C13.0028 12.3334 14.3522 13.6827 16.0109 13.6827C17.6696 13.6827 19.0202 12.3334 19.0202 10.6747C19.0202 9.01606 17.6696 7.66675 16.0109 7.66675ZM30.3335 16.8668C30.3335 14.2321 28.7002 11.5735 25.0535 11.5735H23.7601C23.2081 11.5735 22.7601 12.0215 22.7601 12.5735C22.7601 13.1255 23.2081 13.5735 23.7601 13.5735H25.0535C28.0149 13.5735 28.3335 15.8761 28.3335 16.8668C28.3335 18.0188 27.9214 18.4267 26.7601 18.4267H26.2801C25.7281 18.4267 25.2801 18.8747 25.2801 19.4267C25.2801 19.9787 25.7281 20.4267 26.2801 20.4267H26.7601C29.0308 20.4267 30.3335 19.1294 30.3335 16.8668ZM24.1322 10.7135C25.9335 10.3508 27.2402 8.74281 27.2402 6.89347C27.2402 4.74681 25.4935 3.00008 23.3468 3.00008C22.3322 3.00008 21.3881 3.37604 20.6895 4.05737C20.2935 4.44271 20.2856 5.07609 20.6709 5.47209C21.0549 5.86809 21.6908 5.87614 22.0854 5.4908C22.4095 5.1748 22.8575 5.00138 23.3468 5.00138C24.3908 5.00138 25.2402 5.85078 25.2402 6.89478C25.2402 7.79611 24.6068 8.5788 23.7362 8.7548C23.1948 8.86414 22.8441 9.39202 22.9535 9.93335C23.0495 10.408 23.4668 10.7361 23.9321 10.7361C23.9988 10.7334 24.0655 10.7268 24.1322 10.7135ZM6.70687 19.4267C6.70687 18.8747 6.25887 18.4267 5.70687 18.4267H5.23877C4.07744 18.4267 3.66553 18.0188 3.66553 16.8668C3.66553 15.8761 3.98414 13.5735 6.94548 13.5735H8.26546C8.81746 13.5735 9.26546 13.1255 9.26546 12.5735C9.26546 12.0215 8.81746 11.5735 8.26546 11.5735H6.94548C3.04814 11.5735 1.66553 14.4254 1.66553 16.8668C1.66553 19.1294 2.9681 20.4267 5.23877 20.4267H5.70687C6.25887 20.4267 6.70687 19.9787 6.70687 19.4267ZM9.07487 9.93075C9.1842 9.38941 8.83349 8.86137 8.29216 8.75204C7.41216 8.5747 6.77344 7.79334 6.77344 6.89201C6.77344 5.84801 7.62951 4.99878 8.68018 4.99878C9.16018 4.99878 9.61209 5.17611 9.95475 5.49878C10.3561 5.87878 10.9882 5.86007 11.3682 5.45874C11.7482 5.05741 11.7295 4.42416 11.3281 4.04549C10.6148 3.37082 9.67481 2.99878 8.68148 2.99878C6.52814 2.99878 4.7749 4.74534 4.7749 6.89201C4.7749 8.74001 6.08813 10.3468 7.89746 10.7122C7.96413 10.7255 8.03086 10.732 8.09619 10.732C8.56152 10.7333 8.97754 10.4054 9.07487 9.93075Z" fill="#25314C"/>
</svg>
