<svg width="24" height="26" viewBox="0 0 24 26" fill="none" xmlns="http://www.w3.org/2000/svg">
<path d="M12.0002 0C10.4611 0 8.98493 0.611349 7.89636 1.69986C6.80802 2.7882 6.1965 4.26433 6.1965 5.80373C6.1965 7.34289 6.80802 8.81903 7.89636 9.90759C8.9847 10.9959 10.4608 11.6075 12.0002 11.6075C13.5396 11.6075 15.0158 10.9961 16.1041 9.90759C17.1926 8.81925 17.8041 7.34289 17.8041 5.80373C17.8041 4.26439 17.1926 2.7882 16.1041 1.69986C15.0158 0.611349 13.5396 0 12.0002 0ZM12.0002 13.957V13.9568C8.82258 13.9572 5.7751 15.2175 3.52526 17.4618C1.27565 19.7059 0.0077857 22.7507 0 25.9282H24H23.9998C23.992 22.7507 22.7242 19.7059 20.4748 17.4618C18.2252 15.2177 15.1775 13.9572 11.9998 13.9568L12.0002 13.957Z" fill="#D2D0D0"/>
</svg>
