<svg width="44" height="44" viewBox="0 0 44 44" fill="none" xmlns="http://www.w3.org/2000/svg">
<path fill-rule="evenodd" clip-rule="evenodd" d="M29.5246 0.765659L31.2088 2.4499C31.9748 3.21587 31.9237 4.4564 31.5238 5.46263C30.8363 7.1952 31.1938 9.24594 32.5953 10.648C33.9973 12.0495 36.048 12.4064 37.7806 11.7189C38.7868 11.3195 40.0274 11.2685 40.7933 12.0344L43.2344 14.4755C44.2552 15.4963 44.2552 17.1518 43.2344 18.1726L18.1726 43.2344C17.1518 44.2552 15.4963 44.2552 14.475 43.2344L11.3851 40.1445C10.9807 39.7396 11.0263 39.0758 11.3838 38.629C12.8984 36.7383 12.7794 33.9699 11.0263 32.2168C9.27321 30.4637 6.50536 30.3447 4.61405 31.8593C4.16724 32.2168 3.50341 32.2624 3.09858 31.8579L0.765622 29.5245C-0.255207 28.5037 -0.255207 26.8482 0.765622 25.8274L25.8273 0.765622C26.8482 -0.255207 28.5037 -0.255207 29.5245 0.765622L29.5246 0.765659ZM2.1518 28.1384C1.89648 27.8835 1.89648 27.4696 2.1518 27.2142L13.9894 15.3767L15.4137 16.801C15.7962 17.184 16.4172 17.184 16.8002 16.801C17.1832 16.418 17.1831 15.7975 16.8002 15.4145L15.3759 13.9902L27.2134 2.15262C27.4687 1.89776 27.8823 1.89776 28.1376 2.15262L29.6822 3.69727C29.886 3.90107 29.9289 4.21293 29.8113 4.47646C28.6988 6.96676 29.1643 9.99093 31.2083 12.0349C33.2522 14.0784 36.2764 14.5443 38.7667 13.4319C39.0298 13.3143 39.3421 13.3571 39.5459 13.5609L41.847 15.8625C42.1023 16.1178 42.1023 16.5313 41.847 16.7867L30.0094 28.6242L28.5851 27.1999C28.2021 26.8169 27.5816 26.8169 27.1986 27.1999C26.8156 27.5829 26.8157 28.2039 27.1986 28.5864L28.6229 30.0107L16.7854 41.8483C16.5301 42.1036 16.1161 42.1036 15.8608 41.8483L13.6878 39.6749C13.4699 39.4569 13.4366 39.1177 13.5834 38.8464C14.973 36.2777 14.5828 33.0014 12.4121 30.8307C10.2414 28.6604 6.96513 28.2698 4.3964 29.6594C4.12512 29.8062 3.7859 29.7734 3.56797 29.555L2.1518 28.1384Z" fill="#0D2F3F"/>
</svg>
