<svg width="36" height="36" viewBox="0 0 36 36" fill="none" xmlns="http://www.w3.org/2000/svg">
<path fill-rule="evenodd" clip-rule="evenodd" d="M18 0C8.06537 0 0 8.06606 0 18C0 27.9346 8.06537 36 18 36C27.9346 36 36 27.9346 36 18C36 8.06606 27.9346 0 18 0ZM18 2.4C26.6098 2.4 33.6 9.39017 33.6 18C33.6 26.6098 26.6098 33.6 18 33.6C9.39017 33.6 2.4 26.6098 2.4 18C2.4 9.39017 9.39017 2.4 18 2.4ZM16.8024 7.1411V17.3795L10.0345 23.0195C9.52554 23.4432 9.4559 24.2005 9.88072 24.7092C10.3045 25.2181 11.0617 25.2877 11.5704 24.8629L18.7704 18.8629C19.0441 18.6347 19.2024 18.2977 19.2024 17.9412V7.14125C19.2024 6.47883 18.6649 5.94125 18.0024 5.94125C17.34 5.94125 16.8024 6.47883 16.8024 7.14125L16.8024 7.1411Z" fill="#0D2F3F"/>
</svg>
