<svg width="26" height="27" viewBox="0 0 26 27" fill="none" xmlns="http://www.w3.org/2000/svg">
<path d="M13 0.0175781C5.82183 0.0175781 0 5.83941 0 13.0176C0 20.1957 5.82183 26.0176 13 26.0176C20.1782 26.0176 26 20.1957 26 13.0176C26 5.83941 20.1814 0.0175781 13 0.0175781ZM6.41333 13.4542L6.46858 13.3664L9.85183 8.07541C9.86316 8.05802 9.87896 8.04399 9.89757 8.03479C9.91617 8.02558 9.93691 8.02155 9.95761 8.0231C9.97831 8.02464 9.99821 8.03173 10.0152 8.0436C10.0323 8.05547 10.0458 8.07169 10.0544 8.09058C10.6178 9.357 11.1074 10.9322 10.8778 11.9126C10.7824 12.3156 10.5148 12.8616 10.2126 13.3664C10.1738 13.4403 10.1315 13.5122 10.0858 13.582C10.0749 13.5976 10.0603 13.6102 10.0432 13.6187C10.0262 13.6272 10.0074 13.6313 9.98833 13.6307H6.51408C6.49335 13.6311 6.47291 13.6258 6.45494 13.6154C6.43698 13.605 6.42215 13.59 6.41204 13.5719C6.40193 13.5538 6.39692 13.5333 6.39752 13.5126C6.39813 13.4918 6.40435 13.4716 6.4155 13.4542H6.41333ZM21.4868 15.2742C21.4871 15.2973 21.4806 15.32 21.4681 15.3394C21.4555 15.3589 21.4376 15.3742 21.4164 15.3836C21.1532 15.4952 20.2572 15.909 19.8846 16.4257C18.9334 17.7496 18.2076 19.6432 16.5826 19.6432H9.80742C9.23538 19.6424 8.66911 19.5288 8.14099 19.309C7.61286 19.0892 7.13322 18.7675 6.72948 18.3623C6.32575 17.957 6.00582 17.4762 5.788 16.9472C5.57018 16.4183 5.45872 15.8516 5.46 15.2796V15.2016C5.46 15.1387 5.512 15.0867 5.577 15.0867H9.35242C9.42825 15.0867 9.48242 15.155 9.477 15.2297C9.44883 15.4746 9.49542 15.727 9.61242 15.9556C9.83558 16.4106 10.3014 16.6944 10.803 16.6944H12.6728V15.2352H10.8225C10.8008 15.2349 10.7796 15.2288 10.7612 15.2174C10.7427 15.206 10.7277 15.1898 10.7178 15.1705C10.7079 15.1512 10.7034 15.1296 10.7049 15.108C10.7063 15.0863 10.7137 15.0655 10.7261 15.0477L10.7943 14.9502C10.9677 14.7 11.2179 14.3154 11.4671 13.8756C11.6361 13.5787 11.8008 13.2624 11.9329 12.9439C11.9589 12.8876 11.9795 12.828 12.0033 12.7706C12.0391 12.6687 12.0759 12.5734 12.1019 12.4792C12.1274 12.3992 12.1509 12.3187 12.1723 12.2376C12.2341 11.9667 12.2601 11.6807 12.2601 11.385C12.2601 11.268 12.2558 11.1456 12.2449 11.0307C12.2395 10.904 12.2233 10.7762 12.2081 10.6494C12.196 10.536 12.1786 10.4232 12.1561 10.3114C12.1269 10.1412 12.0915 9.97205 12.0499 9.80441L12.0348 9.73941C12.0023 9.62241 11.9741 9.51191 11.9373 9.396C11.8341 9.04002 11.7155 8.68869 11.5819 8.34299C11.5354 8.21296 11.484 8.08468 11.4281 7.95841C11.3501 7.76558 11.2699 7.59116 11.1973 7.42758C11.1612 7.3575 11.1273 7.28632 11.0955 7.21416C11.0603 7.13631 11.0231 7.05937 10.9839 6.98341C10.9579 6.92599 10.9265 6.87074 10.9059 6.81875L10.6773 6.39841C10.6459 6.34099 10.6979 6.27058 10.7607 6.289L12.1908 6.67575H12.2016L12.389 6.72991L12.597 6.78841L12.6728 6.809V5.96074C12.6728 5.55016 13 5.21758 13.4084 5.21758C13.5049 5.21732 13.6004 5.23657 13.6892 5.27418C13.778 5.31179 13.8582 5.36697 13.9252 5.43641C14.0635 5.57593 14.1413 5.76429 14.1418 5.96074V7.22175L14.2946 7.264C14.3054 7.26941 14.3184 7.27483 14.3282 7.28241C14.365 7.30841 14.4192 7.34958 14.4874 7.40158C14.5416 7.44275 14.599 7.49475 14.6662 7.54999C14.8801 7.72428 15.0875 7.90641 15.288 8.09599C15.5198 8.31158 15.7798 8.56399 16.029 8.84458C16.0994 8.92474 16.1666 9.00274 16.237 9.08941C16.3042 9.17499 16.38 9.25841 16.4428 9.34074C16.5284 9.45341 16.6162 9.57041 16.6974 9.69175C16.7332 9.74916 16.7776 9.80874 16.8112 9.86616C16.9152 10.02 17.004 10.1782 17.0896 10.3374C17.1264 10.41 17.1622 10.4902 17.1936 10.5682C17.29 10.7816 17.3658 10.9972 17.4124 11.216C17.4278 11.2624 17.4384 11.3104 17.4438 11.359V11.3698C17.459 11.4316 17.4644 11.4998 17.4698 11.5692C17.5003 11.8894 17.4612 12.2124 17.355 12.516C17.3214 12.607 17.29 12.7002 17.2488 12.7912C17.1676 12.9753 17.0744 13.1627 16.9628 13.335C16.926 13.4 16.8816 13.4672 16.8404 13.5322C16.7938 13.6004 16.744 13.6654 16.7028 13.7272C16.6433 13.8092 16.5807 13.8891 16.5154 13.9666C16.458 14.0446 16.4006 14.1226 16.3356 14.193C16.2478 14.2992 16.1623 14.3988 16.0702 14.4942C16.0182 14.557 15.9618 14.622 15.9012 14.6783C15.8448 14.7433 15.7842 14.8007 15.7322 14.8527C15.6412 14.9437 15.5697 15.012 15.5068 15.0716L15.3584 15.2037C15.3377 15.2245 15.3097 15.2362 15.2804 15.2362H14.1418V16.6944H15.574C15.8936 16.6944 16.198 16.5817 16.445 16.3716C16.5284 16.299 16.8946 15.9816 17.329 15.5027C17.3432 15.4864 17.3621 15.4751 17.3832 15.4702L21.3373 14.3252C21.3547 14.3201 21.373 14.3192 21.3908 14.3224C21.4085 14.3257 21.4253 14.333 21.4398 14.3438C21.4543 14.3546 21.4661 14.3686 21.4742 14.3847C21.4824 14.4009 21.4867 14.4187 21.4868 14.4367V15.2742Z" fill="#3C3B3B"/>
</svg>
