<svg width="36" height="40" viewBox="0 0 36 40" fill="none" xmlns="http://www.w3.org/2000/svg">
<path d="M35.0795 10.5437L35.0351 10.4296L35.084 10.5418C35.3464 10.4273 35.5435 10.2005 35.622 9.9246L35.6221 9.92443C35.7002 9.64878 35.6526 9.35181 35.4907 9.1151L35.4906 9.11498C35.3265 8.87557 35.1538 8.63625 34.9765 8.40519C32.1493 4.6605 28.0526 2.09537 23.469 1.19995C18.8853 0.304511 14.1338 1.14137 10.123 3.55087C6.11208 5.96034 3.12202 9.7732 1.72309 14.2622C0.324165 18.751 0.613945 23.6021 2.53759 27.8895L2.67444 27.8281L2.53759 27.8895C4.46131 32.1767 7.88416 35.6008 12.1531 37.5075C16.422 39.4142 21.2383 39.6702 25.6827 38.2265L25.6827 38.2265L25.686 38.2254C25.9613 38.129 26.178 37.9124 26.2762 37.6372L26.2762 37.6372C26.3744 37.3618 26.3441 37.0565 26.1935 36.8062L26.1933 36.8059C25.9593 36.4189 25.491 36.2447 25.0629 36.3867C21.0812 37.6731 16.7693 37.4425 12.9443 35.7389C9.1194 34.0358 6.04706 30.9772 4.30949 27.143C2.57214 23.3083 2.29062 18.965 3.51861 14.9356L3.51861 14.9356C4.74629 10.9063 7.39834 7.47116 10.9708 5.28069C14.5431 3.09025 18.7892 2.29667 22.9033 3.04996C27.018 3.8036 30.7153 6.05187 33.2951 9.36939L33.2969 9.37156C33.4991 9.62179 33.6892 9.88156 33.8759 10.1509C34.1345 10.5501 34.6349 10.7147 35.0784 10.5441L35.0709 10.5245L35.0789 10.5439L35.0795 10.5437Z" fill="#0D2F3F" stroke="#0D2F3F" stroke-width="0.3"/>
</svg>
